<?xml version="1.0" standalone="no"?>
<!DOCTYPE svg PUBLIC "-//W3C//DTD SVG 1.1//EN" "http://www.w3.org/Graphics/SVG/1.1/DTD/svg11.dtd" >
<svg xmlns="http://www.w3.org/2000/svg">
<metadata></metadata>
<defs>
<font id="npspict3regular" horiz-adv-x="2048" >
<font-face units-per-em="2048" ascent="1638" descent="-410" />
<missing-glyph horiz-adv-x="1024" />
<glyph horiz-adv-x="0" />
<glyph unicode="&#xd;" horiz-adv-x="1024" />
<glyph unicode=" "  horiz-adv-x="1024" />
<glyph unicode="&#x09;" horiz-adv-x="1024" />
<glyph unicode="&#xa0;" horiz-adv-x="1024" />
<glyph unicode="!" d="M238 229l704 232v-377l-162 -127v-147l252 77l250 -77v147l-162 127v377l703 -232v189l-707 424v506q0 92 -92 92q-90 0 -90 -90v-508l-696 -424v-189z" />
<glyph unicode="&#x22;" d="M217 66q362 -246 803 -246t803 248l-86 127q-324 -221 -717 -222q-393 0 -717 220zM381 330q289 -197 639 -197q348 0 639 197l-86 127q-250 -168 -553 -168q-301 0 -551 166zM547 592q213 -143 471 -143q262 0 475 145l-86 129q-176 -121 -389 -121q-209 0 -385 119z M723 881q0 -47 41 -47t41 47v235h84v-297q74 -18 131 -18t131 16v299h84v-235q0 -47 41 -47q39 0 39 47v243q0 51 -37 92t-96 41h-328q-53 0 -92 -38.5t-39 -94.5v-243zM918 1393q0 -43 29.5 -73t72.5 -30q41 0 71.5 30t30.5 73t-30.5 72.5t-71.5 29.5q-43 0 -72.5 -29.5 t-29.5 -72.5z" />
<glyph unicode="#" d="M164 299q0 -117 81 -198t197 -81q115 0 197 81t82 198q0 115 -82 197t-197 82q-117 0 -197.5 -82t-80.5 -197zM252 782l278 -92q113 -37 184.5 -134t71.5 -220h508q0 154 109.5 263.5t263.5 109.5h156q0 49 -49 63l-523 164l-141 -205q-27 -37 -68 -37q-12 0 -24 4 l-623 193q-8 2 -20 2q-49 0 -76 -41zM338 299q0 43 30.5 73.5t73.5 30.5t74 -30.5t31 -73.5t-31 -73.5t-74 -30.5t-73.5 30.5t-30.5 73.5zM899 1182q0 -37 37 -37h213q31 0 45 -29l59 -117l95 -30l-93 184q-31 63 -106 64h-213q-37 0 -37 -35zM1356 272q0 -106 74.5 -180 t179.5 -74q104 0 179 74t75 180q0 104 -75 178t-179 74t-179 -73.5t-75 -178.5zM1382 1028q0 -45 31 -75.5t76 -30.5h18v211h-18q-45 0 -76 -31t-31 -74zM1516 272q0 39 27.5 67t66.5 28t66.5 -28t27.5 -67t-27.5 -67.5t-66.5 -28.5t-66.5 28.5t-27.5 67.5z" />
<glyph unicode="$" d="M485 1026q0 -53 64 -53h358q68 0 64 59q-8 -45 -58 -45h-342q-61 0 -61 53q0 23 14 37q-39 -14 -39 -51zM510 1040q0 -53 61 -53h342q49 0 58 45q-2 53 -64 53h-358q-2 0 -25 -8q-14 -14 -14 -37zM598 -152q-6 -33 12.5 -60.5t51.5 -33.5t60.5 12.5t35.5 51.5l114 581h54 l114 -581q6 -33 34 -51.5t63 -12.5q31 6 50 34t11 60l-113 566v473l320 -318l27 29q160 176 159 432q0 254 -161 432l-25 29l-414 -412l4 -4q8 -16 13 -37q2 -20 -11 -47q0 -4 -4 -10q-29 -43 -86 -43h-196v-528zM729 1268q0 -61 43 -103.5t102 -42.5t101.5 42t42.5 104 q0 59 -42 101t-102 42q-59 0 -102 -42t-43 -101zM926 399v7v-3v-4zM930 440v4v2v-6zM930 440v6v-2v-4zM1055 1085l325 328q121 -141 138 -328h-463zM1087 942v31h431q-19 -183 -138 -324z" />
<glyph unicode="%" d="M201 178h125v-123q0 -51 35.5 -87t84.5 -36q51 0 87 36t36 87v123h815v-123q0 -51 36 -87t85 -36q51 0 87 36t36 87v123h123v400h2q0 66 -40 115.5t-99 66.5l-144 342q-37 84 -127 84h-733q-92 0 -127 -84l-143 -342q-61 -16 -100 -66.5t-39 -115.5v-400zM330 522 q0 51 37 87t88 36t88 -36t37 -87t-37 -88t-88 -37t-88 37t-37 88zM463 768l123 293q10 27 35 26h710q27 0 37 -26l123 -293h-1028zM1366 522q0 51 37 87t88 36t87 -36t36 -87t-36 -88t-87 -37t-88 37t-37 88z" />
<glyph unicode="&#x26;" d="M440 948l39 -41q12 -12 27 0l2 2q12 14 0 27l-39 41q-13 12 -27 0l-2 -2q-12 -12 0 -27zM498 1026q0 -27 18 -49l203 -203q25 -25 53 -24q18 0 43 14l133 74v-363l-203 -622q-6 -14 -6 -29q0 -41 31 -70.5t72 -29.5q74 0 100 75l178 539l180 -541q27 -76 101 -76 q41 0 71.5 30t30.5 71q0 14 -4 28l-203 615v491q-6 61 -65 62h-260q-10 2 -35 -17l-152 -88l-159 158q-25 27 -58 27q-70 0 -69 -72zM625 1114l28 -29l262 226l175 162q10 12 10 28q0 43 -43 43q-18 0 -31 -10l-166 -166zM989 1186q0 -57 40 -97t97 -40q55 0 96.5 39.5 t41.5 97.5q0 57 -41 97t-97 40q-57 0 -97 -40t-40 -97z" />
<glyph unicode="'" d="M145 268q0 -31 15 -53l88 -154q18 -27 51 -30l78 2q18 0 35 10q41 35 8 78q-8 8 -19 12l-36 27l8 71l114 111l162 -258q35 -57 99 -57h174q55 0 55 55q0 31 -27 47l-88 39l-117 182h332l150 -268q33 -61 102 -62h172q55 0 55 56q0 29 -24 45l-90 41l-137 235l239 281 l266 33q43 4 66 41l29 65q4 8 4 19q0 31 -29 41l-115 63v8q0 78 -73 88l-37 4q4 10 4 19q0 31 -21.5 51t-50.5 20t-49 -20t-20 -51v-6l-390 -62l-530 2q-88 0 -156 -47l-213 -149q-33 -23 -32 -62q0 -31 21.5 -52t51.5 -21q8 0 19 2q10 -80 51 -144l-164 -174 q-31 -33 -31 -78z" />
<glyph unicode="(" d="M182 575l2 -626q39 0 107.5 23.5t105.5 23.5q39 0 107.5 -23.5t107.5 -23.5q37 0 105.5 23.5t107.5 23.5q37 0 105.5 -23.5t107.5 -23.5t107.5 23.5t105.5 23.5q39 0 107.5 -23.5t105.5 -23.5q39 0 107.5 23.5t107.5 23.5q37 0 105.5 -23.5t107.5 -23.5l-2 155l-786 218 q18 -2 18 -3q72 0 124 52.5t52 124.5q0 74 -51 126t-125 52t-126 -52.5t-52 -125.5q0 -111 100 -158zM182 831l744 -204q20 28 45 51l-789 217v-64zM444 1174q0 -246 338 -338l1049 -287l78 280l-1047 287l191 133l-68 17l-190 -133l-344 94q-6 -25 -7 -53zM451 1227z M1044 496q0 33 23 55t55 22q31 0 53.5 -22.5t22.5 -54.5q0 -31 -22.5 -53.5t-53.5 -22.5q-33 0 -55.5 22.5t-22.5 53.5zM1343 575q10 -33 13 -67l444 -123l17 59z" />
<glyph unicode=")" d="M170 -49q37 0 105.5 23.5t107.5 23.5t106.5 -23.5t106.5 -23.5t107.5 23.5t105.5 23.5q39 0 107.5 -23.5t105.5 -23.5q39 0 107.5 23.5t107.5 23.5q37 0 105.5 -23.5t107.5 -23.5t106.5 23.5t106.5 23.5t107.5 -23.5t105.5 -23.5v158q-37 0 -105.5 23.5t-107.5 23.5 t-106.5 -23.5t-106.5 -23.5t-107.5 23.5t-105.5 23.5q-39 0 -107.5 -23.5t-107.5 -23.5q-37 0 -105.5 23.5t-107.5 23.5q-37 0 -105.5 -23.5t-107.5 -23.5t-106.5 23.5t-106.5 23.5t-107.5 -23.5t-105.5 -23.5v-158zM170 256q37 0 105.5 23.5t107.5 23.5t106.5 -23.5 t106.5 -23.5t107.5 23.5t105.5 23.5q39 0 107.5 -23.5t105.5 -23.5q39 0 107.5 23.5t107.5 23.5q37 0 105.5 -23.5t107.5 -23.5q2 0 31 4q20 2 57 14q162 66 326 293l37 62h-1731v-373zM170 690h1503l-149 357q-49 86 -154 86h-1200v-443zM256 786v211q0 31 31 31h139 q33 0 33 -31v-211q0 -31 -33 -30h-139q-31 0 -31 30zM545 786v211q0 31 30 31h140q31 0 30 -31v-211q0 -31 -30 -30h-140q-31 0 -30 30zM831 786v211q0 31 31 31h139q33 0 33 -31v-211q0 -31 -33 -30h-139q-31 0 -31 30zM1137 1028h254q70 0 90 -45l96 -227h-326z" />
<glyph unicode="*" d="M123 254q0 -152 107 -258.5t257 -106.5q152 0 258.5 106.5t106.5 258.5q0 150 -106.5 256t-258.5 106q-150 0 -257 -106.5t-107 -255.5zM190 254q0 123 87 210t210 87t210 -87t87 -210q0 -125 -87 -212t-210 -87t-210 87t-87 212zM590 801q0 -68 59 -101l295 -163v-310 q0 -33 23.5 -56.5t56.5 -23.5t56.5 24t23.5 56v385q8 57 -62 97l-170 90l185 182l88 -139q23 -35 57 -35h266q61 0 62 53q0 53 -62 53h-229l-149 236q-31 49 -95 53q-45 6 -86 -35l-288 -288q-31 -31 -31 -78zM1061 1276q0 -57 40 -97t97 -40q55 0 96 40t41 97t-41 97 t-96 40q-57 0 -97 -40t-40 -97zM1196 250q0 -152 106.5 -258.5t258.5 -106.5t258 106.5t106 258.5t-106.5 258t-257.5 106q-152 0 -258.5 -106t-106.5 -258zM1264 250q0 123 87 210t210 87t210 -87t87 -210t-87.5 -210t-209.5 -87q-123 0 -210 87t-87 210z" />
<glyph unicode="+" d="M428 53h100v-96q0 -88 86 -88t86 88v96h648v-96q0 -88 86 -88t86 88v96h100v615l-59 446q-10 90 -144 146q-170 70 -393 69q-223 0 -393 -69q-133 -55 -146 -146l-57 -446v-615zM522 330q0 37 26.5 63.5t63.5 26.5q39 0 66 -26.5t27 -63.5q0 -39 -27 -64.5t-66 -25.5 q-37 0 -63.5 25.5t-26.5 64.5zM530 670l2 12l48 352q6 39 47 39h794q41 0 47 -39l48 -352l2 -12q0 -47 -50 -47h-888q-49 0 -50 47zM715 1182q0 49 39 49h538q41 0 41 -49q0 -51 -41 -52h-538q-39 0 -39 52zM1343 330q0 37 27 63.5t64 26.5t63.5 -26.5t26.5 -63.5 q0 -39 -26.5 -64.5t-63.5 -25.5t-64 25.5t-27 64.5z" />
<glyph unicode="," d="M168 -94q0 -70 53 -118t127 -48h1317q74 0 127 48t53 118v295h-149v-264q0 -59 -66 -60h-1245q-68 0 -68 60v264h-149v-295zM500 -18l420 141l-349 117l-71 -25v-233zM500 342l1011 -338v232l-1011 337v-231zM598 883q0 -156 135 -310l219 -73q-18 55 -18 106 q0 78 49 156q39 53 80 108q84 150 84 297q0 260 -289 379q31 -39 31 -96q0 -150 -189 -338q-102 -102 -102 -229zM1022 590q0 -21 16 -80l201 70q113 170 113 309q0 131 -115 196q-23 -170 -113 -278q-102 -121 -102 -217zM1092 455l350 -117l69 24v234z" />
<glyph unicode="." d="M184 41v-158q39 0 107.5 23.5t107.5 23.5q37 0 105.5 -23.5t107.5 -23.5q37 0 105.5 23.5t107.5 23.5t106.5 -23.5t106.5 -23.5t107.5 23.5t105.5 23.5q39 0 107.5 -23.5t105.5 -23.5q39 0 107.5 23.5t107.5 23.5q37 0 105.5 -23.5t107.5 -23.5v158q-39 0 -107.5 23.5 t-105.5 23.5q-39 0 -107.5 -23.5t-107.5 -23.5q-37 0 -105.5 23.5t-107.5 23.5q-37 0 -105.5 -23.5t-107.5 -23.5t-106.5 23.5t-106.5 23.5t-107.5 -23.5t-105.5 -23.5q-39 0 -107.5 23.5t-105.5 23.5q-39 0 -107.5 -23.5t-107.5 -23.5zM186 199q37 0 105.5 22.5t107.5 22.5 q37 0 105.5 -22.5t107.5 -22.5q37 0 105.5 22.5t107.5 22.5t106.5 -22.5t106.5 -22.5t107.5 22.5t105.5 22.5q39 0 107.5 -22.5t105.5 -22.5q39 0 107.5 22.5t107.5 22.5q49 0 93 -17q78 84 77 195q0 119 -85 204t-203 85l-33 -4q-45 -150 -180 -150h-658l-55 33l133 223 l145 -84q31 -20 62 -20q45 0 69 43l148 237q16 27 16 53q0 33 -22.5 54.5t-52.5 21.5q-47 0 -76 -47l-103 -166l-241 133q-55 29 -107 29q-92 0 -133 -90l-190 -326q-14 -35 -15 -63q0 -23 13 -35l-95 2v-356zM612 1223q0 -68 46 -114t112 -46t112 46t46 114q0 66 -46 111.5 t-112 45.5t-112 -46t-46 -111z" />
<glyph unicode="/" d="M389 -96q0 -68 68 -68h385q66 0 65 68v725q0 45 -41 69h21q20 -2 20 21v33q0 22 -20 22h-475q-20 0 -21 -22v-33q0 -23 21 -21h18q-39 -25 -39 -69zM399 924q0 -27 19 -47l96 -80q12 -8 23 -9q41 0 41 41q0 6 -5 17l-36 104q-16 45 -66 45q-29 0 -50.5 -21.5t-21.5 -49.5 zM436 924q0 34 35 34q23 0 31 -18l24 -57q4 -6 4 -11q0 -23 -22 -22q-8 0 -14 6l-48 43q-10 10 -10 25zM1124 -104q0 -59 58 -60h434q57 0 57 60v862q0 55 -16 102l-180 486q27 4 26 28q0 18 -16 27q16 8 16 26q0 29 -30 29h-148q-31 0 -31 -29q0 -18 17 -26q-16 -8 -17 -27 q0 -25 27 -28l-180 -486q-16 -45 -17 -102v-862z" />
<glyph unicode="0" d="M403 618q0 -18 11 -34l123 -244q75 -150 243 -150q39 0 80 13l164 47q51 14 51 57q0 57 -59 58q-10 0 -23 -5l-157 -47q-29 -8 -54 -8q-98 0 -141 86l-125 244q-20 39 -57 39q-55 0 -56 -56zM430 1077q0 -55 39 -95t94 -40t94 39t39 96q0 53 -39 93t-94 40t-94 -38.5 t-39 -94.5zM483 -201l17 -47l1286 438q88 29 88 121q0 20 -6 41l-49 -16q4 -12 4 -23q0 -57 -54 -73zM532 817q1 -26 15 -55l162 -311q35 -66 104 -66q16 0 35 4l289 88l4 -287q0 -74 71 -73q72 0 72 71l-2 394q0 39 -29.5 68.5t-62.5 29.5q-8 0 -16 -2l-277 -78l-145 274 q-31 61 -95 62q-49 0 -87 -35t-38 -84zM936 684l57 16v830h-57v-846z" />
<glyph unicode="1" d="M227 854q-20 -35 15 -53l65 -39q35 -21 53 14l205 352q20 35 -14 54l-66 39q-35 20 -53 -15zM242 -84q-6 -39 16.5 -68.5t60.5 -35.5q66 -10 93 45l155 331q8 18 8 39l-2 252l240 -104l39 -246q8 -61 74 -72q45 -6 78.5 26t27.5 77l-47 297q-8 47 -51 65l-213 96l135 236 l68 -86q8 -12 24 -18l256 -74q10 -4 19 -4q29 0 49 22.5t20 50.5q0 51 -49 68l-221 66l-168 202q-35 41 -98 52q-111 16 -166 -78l-187 -322q-18 -31 -16 -76l6 -407l-141 -303q-8 -18 -10 -31zM682 -82l4 -74h1075q29 0 48.5 19.5t19.5 48.5v1450l-148 33l-84 -381 l-143 -60l-125 -350l119 -268l-33 -105l-276 -81l-17 -123zM702 1288q0 -57 40.5 -97t97.5 -40q55 0 96 40t41 97q0 55 -41 96t-96 41q-57 0 -97.5 -41t-40.5 -96z" />
<glyph unicode="2" d="M139 391l424 -426q23 -20 55 -20q37 0 78 28l-41 43q-18 -12 -34 -12t-25 8l-2 2l-455 457v-80zM143 821h465v56h-465v-56zM236 461q0 -37 26.5 -62.5t63.5 -25.5h370q23 0 41 4q47 8 66 29l182 202l213 -205l-86 -383q-4 -12 -4 -20q0 -37 26.5 -63.5t63.5 -26.5 q70 0 86 72l105 464q18 74 -17 109l-186 186l203 236l131 -131q20 -20 47 -21q35 0 67 31l213 213q16 20 17 45q0 31 -21.5 51.5t-50.5 20.5t-45 -17l-176 -176l-213 213q-25 25 -62 25h-333q-31 0 -54 -25l-229 -264q-25 -20 -25 -51q0 -29 20.5 -49.5t49.5 -20.5 q31 0 53 25l213 248l123 -2l-469 -545l-317 2q-39 0 -65.5 -24.5t-26.5 -63.5zM424 -158v-57h1364q57 0 98 41t41 98h-55q0 -35 -24.5 -58.5t-59.5 -23.5h-1364zM1327 1331q0 -57 40 -97t97 -40q55 0 96.5 40t41.5 97t-41 97t-97 40q-57 0 -97 -39.5t-40 -97.5zM1335 -78h60 l530 1065l-53 23z" />
<glyph unicode="3" d="M215 18h578v115h-578v-115zM215 190h578v113h-578v-113zM215 362h578v113h-578v-113zM215 535h578v112h-578v-112zM215 707h578v112h-578v-112zM215 879h578v112h-578v-112zM215 1051h578v112h-578v-112zM870 18h441l-283 1207q-18 43 -65 43h-93v-1250zM1327 303 l23 -102q18 -6 41 -6t63.5 14t63.5 14q25 0 64.5 -14t64.5 -14t64.5 14t62.5 14q25 0 64.5 -14t64.5 -14v94q-23 0 -64.5 14t-64.5 14t-64 -14t-63 -14q-23 0 -64 14t-65 14q-23 0 -64 -14t-63 -14q-33 0 -64 14zM1364 119l22 -99h5q23 0 63.5 14.5t63.5 14.5 q25 0 64.5 -14.5t64.5 -14.5t64.5 14.5t62.5 14.5q25 0 64.5 -14.5t64.5 -14.5v95q-23 0 -64.5 14t-64.5 14t-64 -14t-63 -14q-23 0 -64 14t-65 14q-23 0 -64 -14t-63 -14q-14 0 -27 4z" />
<glyph unicode="4" d="M383 328q0 -8 10 -9q4 0 6 7l58 88v-138l-72 -114v-303q0 -33 22.5 -55.5t53.5 -22.5q33 0 55.5 22.5t22.5 55.5v284l88 119v-135l176 -303q25 -39 69 -39q31 0 53.5 22.5t22.5 55.5q0 20 -10 39l-170 299l70 106h311v-454q0 -31 22.5 -53.5t53.5 -22.5q33 0 55.5 22.5 t22.5 53.5v421l116 117l178 440h136q59 0 59 60q0 37 -29 51l-204 111q-10 4 -21 4h-86q-14 16 -22 35q-8 20 3 36.5t31 16.5h152q37 0 37 37t-37 37h-154q-29 0 -51 -13q10 80 69.5 133.5t141.5 53.5q37 0 37 39q0 37 -37 36q-119 0 -203 -84t-84 -202q0 -66 29 -127l-74 2 q-16 0 -16 -17q0 -6 6 -12l100 -98l-120 -187h-762q-47 0 -81 -32.5t-34 -77.5v-305z" />
<glyph unicode="5" d="M217 -76v-151q35 0 100.5 22.5t102.5 22.5t101.5 -22.5t101.5 -22.5t101 22.5t101 22.5t102.5 -22.5t100.5 -22.5q37 0 102.5 22.5t102.5 22.5q35 0 100.5 -22.5t102.5 -22.5t101.5 22.5t100.5 22.5q37 0 101.5 -22.5t101.5 -22.5v151q-37 0 -101.5 21.5t-101.5 21.5 t-102.5 -21.5t-99.5 -21.5q-37 0 -102.5 21.5t-100.5 21.5q-37 0 -102.5 -21.5t-102.5 -21.5q-35 0 -100.5 21.5t-102.5 21.5t-101.5 -21.5t-100.5 -21.5q-37 0 -101.5 21.5t-101.5 21.5t-102.5 -21.5t-100.5 -21.5zM539 647q0 -57 40 -97t97 -40t97 40t40 97q0 55 -40 95 t-97 40t-97 -40t-40 -95zM551 74q0 -31 23.5 -54.5t54.5 -23.5q45 0 67 39l222 385l483 299q31 20 47 49l334 567q12 20 12 47q0 39 -27.5 68t-66.5 29q-55 0 -84 -49l-279 -474l-407 -245q-33 -20 -49 -49l-320 -549q-10 -16 -10 -39z" />
<glyph unicode="6" d="M186 655l1442 -848q33 -18 72 -18q80 0 121 68l-49 28q-25 -41 -72 -41q-23 0 -43 13l-1442 848zM567 623q-12 -97 101 -109q12 -2 34 6l396 129q57 20 63 63.5t4 47.5l-59 215l237 -141l29 -207q8 -55 47 -78l310 -180q16 -10 32 -11q31 0 51.5 21.5t20.5 50.5 q0 41 -37 62l-246 143l-26 369q-6 74 -64 106l-354 209q-49 29 -102 29q-96 0 -150 -78q-31 -47 -31 -103q0 -25 6 -49l97 -313l-289 -92q-61 -18 -70 -90zM1559 932q0 -57 41 -97t96 -40q57 0 97 39.5t40 97.5q0 57 -40 97t-97 40q-55 0 -96 -40t-41 -97z" />
<glyph unicode="7" d="M420 1323l225 -1434h770l223 1434l-149 -2l-205 -1280h-508l-205 1280zM662 1217l20 -142q35 -31 96 -31q86 0 125 60q41 -59 123 -60q86 0 125 60q41 -59 123 -60q66 0 102 35l23 146q-45 -68 -125 -68q-78 0 -123 66q-43 -66 -125 -66q-78 0 -123 66q-43 -66 -125 -66 q-72 0 -116 60z" />
<glyph unicode="8" d="M197 109q0 -68 67 -68q68 0 68 68q0 67 -68 67t-67 -67zM197 -147q0 -68 67 -68q68 0 68 68q0 67 -68 67t-67 -67zM197 362q0 -68 67 -67q68 0 68 67q0 68 -68 68t-67 -68zM197 618q0 -70 67 -69q68 0 68 69q0 27 -19.5 47.5t-48.5 20.5t-48 -20.5t-19 -47.5zM197 872 q0 -68 67 -67q68 0 68 67q0 68 -68 68q-29 0 -48 -19.5t-19 -48.5zM197 1126q0 -27 19.5 -47t47.5 -20q68 0 68 67q0 70 -68 70t-67 -70zM197 1382q0 -29 19.5 -48t47.5 -19q68 0 68 67q0 68 -68 68t-67 -68zM449 -152q0 -70 67 -69q68 0 68 69q0 68 -68 68q-27 0 -47 -20.5 t-20 -47.5zM449 1382q0 -29 20 -48t49 -19q68 0 68 67q0 68 -68 68q-29 0 -49 -19.5t-20 -48.5zM528 371h78v-80q0 -31 23.5 -54.5t54.5 -23.5q33 0 56.5 23.5t23.5 54.5v80h520v-80q0 -31 22.5 -54.5t55.5 -23.5t55.5 23.5t22.5 54.5v80h80v256q0 92 -88 116l-93 218 q-23 55 -82 55h-469q-57 0 -79 -55l-93 -218q-88 -25 -88 -116v-256zM618 598q0 63 66 64q63 0 64 -64q-1 -66 -64 -66q-66 0 -66 66zM694 748l80 188q6 16 23 16h454q16 0 23 -16l78 -188h-658zM702 -154q0 -29 19.5 -48t48.5 -19q68 0 68 67q0 29 -19.5 48.5t-48.5 19.5 t-48.5 -19.5t-19.5 -48.5zM702 1382q0 -29 19.5 -48t48.5 -19q68 0 68 67q0 68 -68 68q-29 0 -48.5 -19.5t-19.5 -48.5zM885 -27l129 -127l-129 -129h108l127 129l-127 127h-108zM926 1380l129 -127h106l-127 127l127 127h-106zM1208 -154q0 -68 70 -67q68 0 68 67 q0 68 -68 68q-29 0 -49.5 -19.5t-20.5 -48.5zM1208 1382q0 -29 20.5 -48t49.5 -19q68 0 68 67q0 68 -68 68q-29 0 -49.5 -19.5t-20.5 -48.5zM1294 598q0 63 66 64q66 0 65 -64q1 -66 -65 -66t-66 66zM1462 -154q0 -68 68 -67q29 0 49 19.5t20 47.5q0 29 -20 48.5t-49 19.5 q-68 0 -68 -68zM1462 1382q0 -68 68 -67q29 0 49 19.5t20 47.5q0 29 -20 48.5t-49 19.5q-27 0 -47.5 -19.5t-20.5 -48.5zM1716 102q0 -29 19.5 -48t48.5 -19t48 19.5t19 47.5q0 27 -19 47.5t-48 20.5t-48.5 -20.5t-19.5 -47.5zM1716 -152q0 -70 68 -69q68 0 67 69 q1 68 -67 68q-29 0 -48.5 -20.5t-19.5 -47.5zM1716 356q0 -68 68 -67q29 0 48 19.5t19 47.5q0 29 -19 48.5t-48 19.5t-48.5 -19.5t-19.5 -48.5zM1716 612q0 -29 19.5 -49t48.5 -20t48 20.5t19 48.5q0 27 -19 47.5t-48 20.5t-48.5 -20.5t-19.5 -47.5zM1716 866 q0 -29 19.5 -48t48.5 -19t48 19.5t19 47.5q0 29 -19 48.5t-48 19.5t-48.5 -19.5t-19.5 -48.5zM1716 1120q0 -68 68 -67q29 0 48 20.5t19 46.5q0 29 -19 48.5t-48 19.5t-48.5 -19.5t-19.5 -48.5zM1716 1376q0 -70 68 -69q29 0 48 20.5t19 48.5q0 27 -19 47.5t-48 20.5 t-48.5 -20.5t-19.5 -47.5z" />
<glyph unicode="9" d="M170 352q0 -63 63 -63q27 0 46 18l200 201v-268h-225q-31 0 -52.5 -21.5t-21.5 -52.5t23 -53l252 -254q23 -33 63 -33q31 0 53.5 22.5t22.5 53.5q0 20 -10 39l-142 143h414l-143 -143q-10 -18 -11 -39q0 -31 21.5 -53.5t54.5 -22.5q41 0 64 33l252 252q23 23 22 55 q0 31 -21.5 52.5t-52.5 21.5h-225v264l197 -197q18 -18 47 -18q61 0 61 61q0 27 -18 43l-256 258q-31 31 -74 31h-256q-43 0 -72 -31l-258 -258q-18 -16 -18 -41zM526 831q0 -51 36 -86.5t87 -35.5t87 35.5t36 86.5t-36 87t-87 36t-87 -35.5t-36 -87.5zM903 1380 q0 -25 19 -41l319 -321v-1059q0 -29 19.5 -49.5t48.5 -20.5q70 0 69 70v576h56v-576q0 -29 20.5 -49.5t48.5 -20.5q29 0 49.5 20.5t20.5 49.5v1059l319 321q16 16 17 41q0 63 -62 64q-27 -1 -47 -19l-303 -305h-180l-305 305q-18 18 -45 19q-63 0 -64 -64zM1282 1270 q0 -51 36 -87t87 -36t87 36t36 87t-36 87t-87 36q-49 0 -86 -36t-37 -87z" />
<glyph unicode=":" d="M346 -14q0 -27 20.5 -47.5t49.5 -20.5h940l-78 275l-709 856l-112 278l-111 33v-1374zM651 1018l164 -55l55 163l-163 56zM868 1311l47 -101l99 47l-45 99zM872 1059l21 -166l88 -117l215 25l-25 284zM952 637h64l45 35l-64 84l-45 -33v-86zM1241 582l105 -64l59 10 l72 119v2l-105 64l-59 -11l-72 -118v-2zM1266 330l51 -99l137 -20l25 199l-193 24zM1534 37v-121h170v113l-100 77z" />
<glyph unicode=";" d="M530 1051q0 -47 50 -47q27 0 43 24q43 59 71 84q55 49 140 70v-88q-57 -10 -119 -72q-80 -82 -80 -191v-972q0 -66 59 -66h428q59 0 60 66v972q0 109 -78 191q-59 61 -117 72v98h197v-41l477 -74v330l-477 -70v-45h-195v70h-57q0 37 -34 68.5t-81 31.5q-53 0 -90 -35.5 t-37 -93.5q0 -57 41 -82q-55 -20 -117.5 -77.5t-76.5 -100.5q-6 -12 -7 -22zM760 1341q0 55 55 56q55 0 55 -56q0 -57 -55 -57t-55 57z" />
<glyph unicode="&#x3c;" d="M176 16l152 -47q35 125 129 226l739 800l-174 160l-115 -125l-37 -149l-538 -586q-111 -119 -156 -279zM975 -12h256q0 126 -98 202zM1024 1257l258 -237l49 -330q211 20 404 236l-549 506zM1276 276l256 -28l-152 207q-92 -68 -104 -179zM1352 195q2 -41 20 -82 q61 -135 211 -136q51 0 96 21q137 63 138 213q0 49 -21 96q-53 113 -174 133l-39 -229z" />
<glyph unicode="=" d="M381 406h420v-420h420l-2 420h419v419h-419l2 420h-420v-420h-420v-419z" />
<glyph unicode="&#x3e;" d="M225 659q0 -59 39 -102q45 -51 113 -51q59 0 102 41l2 2l396 375q6 0 30 -9q33 0 55.5 23t22.5 55l-4 21q379 311 711 315q61 0 145 -18l12 -2v59l-8 2q-90 18 -151 16q-358 -2 -750 -325q-6 2 -33 10q-31 0 -53.5 -22.5t-22.5 -55.5l5 -22q-4 -4 -218 -203l-182 -174 q-27 -25 -63 -23q-35 2 -58.5 27t-23.5 59q0 39 26 66q14 6 25 14q2 -8 10 -65l150 192l-166 -57q-41 -14 -62 -37q-49 -45 -49 -111zM715 207q0 -4 2 -6q416 -334 1122 -324v852q-221 -4 -409 -33q-455 -74 -668 -262q-6 -4 -6 -14t8 -14l283 -136q16 -8 16 -24 q0 -29 -27 -29l-311 2q-10 0 -10 -12zM1114 424q0 65 66 65q68 0 67 -65q0 -68 -67 -68q-66 0 -66 68z" />
<glyph unicode="?" d="M164 1053q74 -90 176 -146l47 21l29 -51l47 34l33 -47l45 37l37 -45l43 39l36 -43l41 41l41 -41l41 41l41 -41l41 41l41 -41l41 41l41 -41l41 41l41 -41l41 41l41 -41l39 41l41 -41v203h-1065v-2zM213 358q0 -2 2 -2q258 -184 659 -184q336 0 707 147l254 -124q4 -2 8 -2 q18 0 19 20q0 4 -2 8l-150 187l150 186q2 6 2 10q0 20 -19 21q-4 0 -8 -2l-254 -125q-430 156 -797 155q-356 0 -544 -166q-4 -2 -4 -8q0 -4 6 -8l157 -76q10 -4 11 -14q0 -16 -17 -16h-174q-6 0 -6 -7zM436 492q0 61 60 61q61 0 61 -61q0 -60 -61 -60q-59 0 -60 60z M1288 850h504q41 0 70.5 29.5t29.5 72.5t-29.5 73t-70.5 30h-504v-205z" />
<glyph unicode="@" d="M201 848q0 -4 2 -4q260 -184 659 -185q338 0 707 146l254 -123q4 -2 8 -2q20 0 20 20q0 4 -4 11l-149 184l149 186q4 7 4 11q0 20 -20 20q-4 0 -8 -2l-254 -125q-430 156 -795 156q-358 0 -547 -166q-2 -2 -2 -8t4 -9l160 -75q8 -4 8 -15q0 -16 -14 -16h-176q-6 0 -6 -4z M295 381q104 -74 264 -74q135 0 283 60l102 -52h2q8 0 8 9v4l-61 73l61 76v4q0 6 -8 6h-2l-102 -49q-172 61 -318 62q-45 0 -123 -19q-96 -23 -96 -51q0 -2 2 -4l64 -31q4 0 4 -4q0 -6 -6 -6h-72q-2 0 -2 -2v-2zM389 430q0 33 33 33t33 -33q0 -31 -33 -31t-33 31zM430 979 q0 55 55 55t56 -55q-1 -55 -56 -55t-55 55zM713 72q104 -74 264 -74q135 0 283 57l100 -49h4q8 0 8 8q0 2 -2 4l-59 74l59 74q2 2 2 4q0 8 -8 8h-4l-100 -49q-172 61 -320 61q-45 0 -121 -18q-98 -20 -98 -51q0 -2 2 -4l63 -31q4 0 5 -4q0 -6 -7 -6h-69q-2 0 -2 -2v-2z M805 121q0 33 33 33t32 -33q1 -31 -32 -31t-33 31zM1122 383q0 -2 2 -2q102 -74 262 -74q135 0 283 60l103 -52h2q8 0 8 9v4l-62 73l62 76v4q0 6 -8 6h-2l-103 -49q-172 61 -317 62q-45 0 -123 -19q-96 -23 -96 -51q0 -2 2 -4l63 -31q4 0 4 -4q0 -6 -8 -6h-70q-2 0 -2 -2z M1217 430q0 33 32 33q31 0 31 -33q0 -31 -31 -31q-33 0 -32 31z" />
<glyph unicode="A" d="M184 975h262q35 0 59.5 -24.5t24.5 -59.5l2 -123q0 -96 69 -166t167 -70h197q35 0 60.5 -24.5t25.5 -58.5v-121q0 -98 68.5 -167t166.5 -69h199q35 0 60.5 -24.5t25.5 -61.5v-231h151v231q0 98 -69.5 168t-167.5 70h-197q-35 0 -59.5 24.5t-26.5 59.5v121 q-2 98 -70.5 166.5t-166.5 68.5h-197q-35 0 -60.5 24.5t-25.5 59.5v123q0 96 -68.5 165.5t-167.5 69.5h-262v-151zM772 1309q0 -80 197 -228q174 -127 278 -161q98 -35 176 -95q129 -102 129 -239l-125 -203q-2 -4 -2 -6q0 -16 17 -17q4 0 8 2l174 76l176 -76q2 -2 8 -2 q14 0 15 17q0 4 -2 6l-125 203q4 39 4 82q0 248 -111 411l80 15l-121 166l-121 -21q-223 166 -448 166q-72 0 -137 -19q-12 -2 -13 -16q0 -8 5 -12l63 -80q4 -4 4 -8q0 -10 -10 -10q-4 0 -8 2l-80 61q-6 4 -12 4q-18 0 -19 -18zM961 1309q0 41 38 41q39 0 39 -41 q0 -39 -39 -39t-38 39z" />
<glyph unicode="B" d="M211 -47v-150q37 0 101.5 22.5t101.5 22.5t101.5 -22.5t102.5 -22.5q35 0 100.5 22.5t102.5 22.5t101.5 -22.5t101.5 -22.5t101.5 22.5t101.5 22.5t101.5 -22.5t103.5 -22.5q35 0 100 22.5t102 22.5t101.5 -22.5t101.5 -22.5v150q-37 0 -102.5 22.5t-100.5 22.5 q-37 0 -102.5 -22.5t-99.5 -22.5q-37 0 -102.5 22.5t-102.5 22.5t-101.5 -22.5t-101.5 -22.5t-102.5 22.5t-100.5 22.5q-37 0 -102.5 -22.5t-100.5 -22.5q-37 0 -102 22.5t-102 22.5t-101.5 -22.5t-101.5 -22.5zM215 125h862v629h99v57h-433v49l228 230l92 -95 q16 -14 41 -14h178q55 0 55 55q0 8 -4 21l377 375v-1309h43v1362q0 14 -14 18q-4 2 -9 2q-7 0 -14 -6l-413 -414q-10 6 -21 7h-156q-14 12 -168 168q-10 10 -26 14q-25 20 -55 20q-33 0 -58 -24l-244 -244q-16 -14 -16 -37v-178h-344v-57h344v-402q0 -37 26.5 -64.5 t65.5 -27.5q37 0 64.5 27.5t27.5 64.5v402h277v-533h-805v-96zM913 1386q0 -47 33 -79.5t80 -32.5t81 32.5t34 79.5t-34 80t-81 33t-80 -32.5t-33 -80.5z" />
<glyph unicode="C" d="M528 926q0 -53 35 -86t82 -33v-913q0 -96 88 -97q88 0 88 97v913q47 0 81 35t34 76v509q0 33 -33 33q-31 0 -31 -30v-375h-112v372q0 33 -29 33q-31 0 -31 -30v-375h-108v370q0 35 -31 35q-33 0 -33 -33v-501zM1217 457h94v-563q0 -94 90 -95q88 0 88 95v1417 q0 70 -43 112q-39 37 -92 37q-55 0 -94 -37q-43 -43 -43 -112v-854z" />
<glyph unicode="D" d="M156 379h69q6 109 96 185.5t205 76.5q113 0 203 -77t96 -185l422 -2q8 111 97.5 187.5t203.5 76.5q113 0 203 -77t96 -187h27q53 0 53 53v125h-80v203q-5 72 -58 72q-6 0 -13 -1h-408l-149 252h-86l147 -252l-113 -190h-256q-102 172 -268 172h-487v-432zM324 338 q0 -82 58 -141.5t142 -59.5t142.5 58.5t58.5 142.5t-58.5 143.5t-142.5 59.5t-142 -59.5t-58 -143.5zM438 338q0 37 25.5 62.5t60.5 25.5q37 0 62.5 -25.5t25.5 -62.5q0 -35 -25.5 -60.5t-62.5 -25.5q-35 0 -60.5 25.5t-25.5 60.5zM1346 338q0 -82 59 -141.5t143 -59.5 q82 0 141.5 59.5t59.5 141.5q0 84 -59.5 143.5t-141.5 59.5q-84 0 -143 -59.5t-59 -143.5zM1460 338q0 37 25.5 62.5t62.5 25.5q35 0 60.5 -25.5t25.5 -62.5q0 -35 -25.5 -60.5t-60.5 -25.5q-37 0 -62.5 25.5t-25.5 60.5z" />
<glyph unicode="E" d="M537 -133l630 -10v794h119q51 0 51 -49v-600q0 -59 48.5 -104t111.5 -45t117.5 44t54.5 105q-10 10 -65 379l-15 100v457q0 72 -49 121l-211 211q-8 0 -55 -41q0 -6 104 -119l-2 -176v-5q0 -44 32 -76q34 -34 83 -34h27l-11 -338l15 -116l63 -345v-5q-1 -37 -27 -59 q-28 -24 -61 -24q-29 0 -54.5 20.5t-25.5 49.5v602q0 53 -39 92t-92 39h-129q10 0 10 477v17q0 53 -37.5 90t-91.5 37h-372q-53 0 -91 -37t-38 -90v-1362zM629 913v316q0 35 37 35h372q35 0 35 -35v-316q0 -35 -35 -34h-372q-37 0 -37 34zM1444 930v82l16 -4q16 -4 23 -4 q24 -6 24 -47v-83q-63 14 -63 56z" />
<glyph unicode="F" d="M600 -211q0 -33 23.5 -56.5t56.5 -23.5q43 0 70 41l385 580l20 -80l-57 -434q-4 -33 14 -58.5t51 -31.5t60.5 13t31.5 52l60 445q2 23 -4 47l-131 522l342 61q27 4 43 28q13 19 13 40q0 5 -1 10q-6 27 -31 45l-786 518l-72 -104q-11 -15 -11 -29q0 -19 23 -35 q14 -9 27 -9q20 0 37 22l41 61l639 -420l-522 -94q-29 -6 -46.5 -29.5t-9.5 -50.5l113 -440l-369 -551q-10 -18 -10 -39zM764 1073q0 -55 39 -93t94 -38t95 38t40 93t-40 93t-95 38t-94 -38t-39 -93z" />
<glyph unicode="G" d="M141 1163q130 -57 130 -243q0 -18 -1 -37q20 2 41 2q180 0 277 -168l420 127l-27 -281l-178 -43q-25 -6 -39 -20l-391 -379q-18 -16 -19 -41q0 -57 60 -57q23 0 39 16l292 283l418 102l56 -62q12 -16 32 -16h195q45 0 45 45q0 33 -35 43l-145 502l602 182q20 8 20 24 q0 19 -28 21q-281 33 -926 37q-143 -2 -279 -4q-324 -10 -559 -33zM1024 573l27 283l221 68l141 -488h-141q-2 4 -29 33l-76 84q-30 36 -68 36q-12 0 -24 -3zM1114 668q0 -37 26.5 -62.5t63.5 -25.5t62.5 25.5t25.5 62.5t-25.5 63.5t-62.5 26.5t-63.5 -26.5t-26.5 -63.5z " />
<glyph unicode="H" d="M223 451l2 -375h4q41 0 78 16q61 29 125 29q66 0 125 -27q39 -18 78 -18q41 0 78 16q61 29 127 29q63 0 125 -27q37 -18 77 -18q31 0 83.5 18.5t74.5 22.5l-137 98l-197 6l-139 96l-260 101zM229 -49v-150q37 0 101.5 22.5t101.5 22.5t101.5 -22.5t101.5 -22.5 t102.5 22.5t102.5 22.5t101.5 -22.5t100.5 -22.5q37 0 101.5 22.5t101.5 22.5t101.5 -22.5t101.5 -22.5t102.5 22.5t102.5 22.5t101.5 -22.5t100.5 -22.5v150q-37 0 -102 22.5t-100 22.5q-37 0 -102.5 -22.5t-102.5 -22.5q-35 0 -100.5 22.5t-102.5 22.5t-101.5 -22.5 t-101.5 -22.5t-102.5 22.5t-99.5 22.5q-37 0 -102.5 -22.5t-102.5 -22.5q-35 0 -100.5 22.5t-102.5 22.5t-101.5 -22.5t-101.5 -22.5zM295 524q0 -63 63 -63q32 -1 50 24l151 191q8 8 11 20.5t3 24.5q0 2 -4 12l84 -61q-2 -47 -6 -244q0 -61 64 -63q63 0 65 63l4 274 q0 33 -26 54l-150 110l184 115l191 -211q18 -20 38 -20q17 0 34 16q19 17 19 35q0 17 -17 35l-262 290q-8 10 -15 15q-30 24 -66 24h-3q-31 0 -56 -16l-241 -148q-49 -31 -54 -88q0 -4 2 -10v-12t4 -12q2 -14 11 -27q2 0 4 -4l57 -125l-125 -158q-14 -18 -14 -41zM739 1241 q4 -41 37 -67q29 -23 63 -24q5 0 11 1q44 4 70 37q23 29 22 63v11q-4 44 -37 70q-29 23 -63 22h-11q-43 -4 -69 -37q-23 -29 -24 -65q0 -5 1 -11zM879 604q-2 -14 -2 -27q0 -69 67 -100l776 -368q25 -12 52 -13q53 0 88 41zM889 639l991 -471q10 23 10 49q0 74 -67 107 l-361 170q41 8 41 47q0 49 -49 49t-49 -49q0 -10 4 -21l-362 172q-25 12 -52 13q-72 0 -106 -66zM1430 541q0 22 22 22h2q23 0 23 -22q0 -23 -23 -23q-24 0 -24 23z" />
<glyph unicode="I" d="M205 365h123v282l63 98v-339l-63 -101v-436q0 -31 22.5 -54.5t55.5 -23.5t55 23.5t22 54.5v377l78 121v-129l172 -406q23 -39 68 -39q31 0 54.5 22.5t23.5 55.5q0 20 -11 39l-147 350l70 121h393v-512q0 -31 23.5 -54.5t54.5 -23.5q33 0 56 23.5t23 54.5v502l179 364 q27 -8 55 -8q74 0 130 45t75 115l18 -4q8 -1 15 -1q27 0 51 18q30 24 30 61q0 46 -41 73l-235 156l12 129l-477 -494h-176v101l149 -35q10 -2 18 -2q39 0 50 45q2 9 2 18q0 38 -45 49l-174 46v38q0 49 -34 84t-83 35t-84 -34.5t-35 -84.5v-260h-364q-72 0 -122 -51t-50 -123 v-286zM745 1350q0 -47 34 -82t83 -35t83 35t34 82q0 49 -34 83.5t-83 34.5t-83 -34.5t-34 -83.5zM1538 774l74 144l125 -23q-14 -55 -59.5 -90t-102.5 -35q-18 0 -37 4z" />
<glyph unicode="J" d="M477 -25h275v568h548v-568h275v1276h-275v-434h-548v434h-275v-1276z" />
<glyph unicode="K" d="M195 1192h297v242h-297v-242zM397 528q0 -57 41 -98t99 -41q57 0 97 41t40 98v412q45 16 45 64q0 47 -45 63v367h-43v-369q-45 -14 -45 -61t45 -64v-412q0 -39 -28 -67.5t-66 -28.5q-41 0 -69 28.5t-28 67.5q0 20 9 37l4 -2l32 -33l-20 189l-55 -127q-13 -35 -13 -56v-8z M715 156q0 -4 2 -9q403 -323 1077 -323h45v854q-221 -4 -409 -35q-455 -72 -668 -262q-6 -4 -6 -12q0 -12 8 -17l283 -133q16 -8 16 -26q0 -27 -27 -27h-311q-10 0 -10 -10zM809 1196h1055v238h-1055v-238zM1114 371q0 67 66 67q67 0 67 -65q0 -68 -67 -68q-27 0 -46.5 19.5 t-19.5 46.5z" />
<glyph unicode="L" d="M195 135l276 -278q20 -12 43 -13q43 0 80 47l-39 39l-20 -20q-23 -20 -39 0l-263 262zM437.5 19.5q25.5 -25.5 62.5 -25.5q30 0 55 20l430 430l-102 103q-10 10 -19 22l-420 -422q-32 -24 -32 -65q0 -37 25.5 -62.5zM565 1092q0 -29 20.5 -49.5t49.5 -20.5l504 -2 l-213 -211q-45 -45 -45 -111q0 -63 47 -110l319 -324v-260q0 -37 26.5 -62.5t63.5 -25.5q31 0 59.5 29.5t28.5 58.5v363q0 37 -28 63l-213 213l282 283q33 45 33 96q0 25 -8 49q-35 90 -129 90h-727q-29 0 -49.5 -20.5t-20.5 -48.5zM1159 -115v-53h393q64 14 64 85 q0 11 -2 24h-55v-29q-2 -29 -27 -27h-373zM1425 1255q0 -59 42.5 -101t101.5 -42t101 42t42 101q0 61 -42 103.5t-101 42.5t-101.5 -42t-42.5 -104z" />
<glyph unicode="M" d="M172 614q0 -352 250 -602t602 -250t602 250t250 602q0 354 -250 603t-602 249t-602 -248.5t-250 -603.5zM297 614q0 301 213 514t514 213t514 -213t213 -514t-213 -514t-514 -213t-514 213t-213 514zM678 748h174v34q0 160 121 185q18 4 39 4q57 0 99 -31t42 -86 q0 -61 -49 -94l-98 -68q-76 -51 -76 -137v-201h174v135q0 61 61 103q82 51 105 76q70 72 69 174q0 111 -82 196q-72 76 -165 97q-45 8 -88 8q-143 0 -232 -96q-61 -66 -80 -140q-14 -53 -14 -159zM928 96h176v180h-176v-180z" />
<glyph unicode="N" d="M188 406q14 -23 33 -23q12 0 27 10q23 14 23 34q0 12 -9 26q-14 23 -34 23q-12 0 -27 -9q-22 -14 -22 -33q0 -13 9 -28zM219 285q14 -24 34 -24q12 0 26 9q23 14 23 34q0 13 -9 28q-14 22 -33 22q-13 0 -29 -10q-22 -14 -22 -32q0 -12 10 -27zM248 162q14 -22 33 -22 q13 0 28 10q23 14 23 34q0 12 -8 25q-14 23 -34 23q-13 0 -28 -9q-23 -14 -23 -34q0 -12 9 -27zM279 41q15 -24 35 -24q12 0 26 10q23 14 23 33q0 12 -9 26q-15 24 -34 24q-12 0 -27 -10q-23 -14 -23 -33q0 -12 9 -26zM330 451l80 -310q0 -6 4 -18q20 -33 53 -12 q14 10 18 26l50 150h219q72 0 102 49l100 166l226 -223l-95 -375h330q39 0 39 39q0 23 -24 34l-142 78l68 271q2 10 2 20q0 45 -39 90l-184 182l161 267l74 -166q2 -6 15.5 -15.5t13.5 -17.5q16 -12 39 -12h307q31 0 52.5 21.5t23.5 52.5q0 31 -21.5 52t-52.5 21h-262 l-119 273q-2 4 -6 14l-2 4h-2q-37 80 -123 84q-16 0 -31 -4l-655 -154q-31 -6 -47.5 -31.5t-7.5 -56.5q6 -29 31.5 -45t56.5 -10l436 104l-332 -548h-356zM1042 -217q11 -32 37 -32q9 0 19 3q32 9 32 35q0 9 -4 21q-9 32 -35 32q-9 0 -20 -4q-32 -11 -32 -36q0 -9 3 -19z M1167 -217q11 -32 38 -32q9 0 20 3q30 9 30 35q0 9 -4 21q-9 31 -37 31q-8 0 -18 -3q-32 -11 -32 -38q0 -8 3 -17zM1241 1335q0 -63 44.5 -106t105.5 -43t105 43t44 106q0 61 -44 105.5t-105 44.5t-105.5 -44t-44.5 -106zM1294 -219q11 -32 38 -32q8 0 18 3q31 11 32 37 q0 8 -4 18q-11 32 -36 32q-8 0 -19 -3q-32 -9 -32 -36q0 -8 3 -19zM1419 -219q11 -32 38 -32q8 0 18 3q32 10 32 36q0 9 -4 19q-9 32 -36 32q-9 0 -19 -3q-32 -9 -32 -37q0 -8 3 -18z" />
<glyph unicode="O" d="M137 -176q0 -41 30 -70.5t73 -29.5t71 28l144 144q28 28 28 68q0 28 -10 50l170 172q111 35 137 35q37 0 102.5 -22.5t102.5 -22.5t101.5 22.5t101.5 22.5t101.5 -22.5t101.5 -22.5t102.5 22.5t101.5 22.5q35 0 100.5 -22.5t102.5 -22.5v150q-37 0 -102.5 22.5 t-100.5 22.5q-37 0 -102.5 -22.5t-101.5 -22.5q-37 0 -101.5 22.5t-101.5 22.5t-101.5 -22.5t-101.5 -22.5t-102.5 22.5t-102.5 22.5q-35 0 -100.5 -22.5t-101.5 -22.5q-37 0 -101.5 22.5t-101.5 22.5t-102.5 -22.5t-100.5 -22.5v-150q35 0 100.5 22.5t102.5 22.5 q35 0 95 -20.5t91 -22.5l-125 -125q-25 16 -53 17q-43 0 -72 -31l-143 -141q-31 -31 -31 -74zM172 422q41 0 78 16q61 27 125 27q39 0 103.5 -21.5t99.5 -21.5q41 0 77 16q61 27 125 27q66 0 125 -27q37 -16 80 -16q41 0 78 16q61 27 125 27q66 0 125 -27q37 -16 78 -16 t77 16q61 27 127 27q39 0 66 18q45 20 117 64q37 23 37 45q0 25 -52 24q-38 -1 -210.5 -1t-479.5 1l205 205l27 -12q12 -4 24 -4q47 0 64 45q4 12 4 23q0 25 -21 47l168 167q23 -12 49 -12q41 0 70 29l143 143q31 31 31 72q0 43 -29.5 72.5t-72.5 29.5t-72 -30l-143 -142 q-29 -31 -29 -71q0 -31 14 -56l-176 -178l-354 131q-33 18 -72 19q-109 0 -139 -103l-109 -364q0 -4 -2 -11h-481v-194zM813 1264q0 -25 6 -43h94q25 0 35 20l19 41q10 25 39 25h141q-14 55 -59.5 91t-104.5 36q-70 0 -120 -50.5t-50 -119.5zM870 1186q41 -59 113 -60 q57 0 97 40t40 98v8h-114q-7 0 -9 -6l-18 -39q-18 -41 -66 -41h-43zM956 616l88 291l181 -67l-226 -224h-43z" />
<glyph unicode="P" d="M197 528l161 74v-737h1454v151h-1302v654l1302 590v155l-1615 -729v-158zM774 668q-6 -11 -6 -20q0 -17 20 -30l82 -47v-397q0 -59 62 -59q59 0 59 59v156l111 -185q16 -30 49 -30h2q61 0 61 61q0 16 -8 31l-102 172h227v-205q1 -59 62 -59q59 0 59 59v205q20 0 21 24 v154l-191 94h-408l-51 29q-31 18 -49 -12zM1300 692l173 -82v33h141l51 111l-365 172v-234z" />
<glyph unicode="Q" d="M461 -139h1134v1140q0 51 -51 52h-1032q-51 0 -51 -52v-1140zM463 1133h1136v176q0 51 -51 51h-1034q-51 0 -51 -51v-176zM575 1245q0 57 56 58q57 0 57 -58q0 -57 -57 -57q-55 0 -56 57zM657 485q0 152 106.5 259.5t258.5 107.5t259.5 -107.5t107.5 -259.5t-107.5 -259 t-259.5 -107t-258.5 107.5t-106.5 258.5zM715 496q0 -129 90 -218.5t217 -89.5q129 0 219 90.5t90 217.5q0 72 -12 84q-31 -29 -74 -29q-45 0 -76 29q-31 -29 -73 -29q-43 0 -74 29q-31 -29 -72 -29t-71 27q-31 -27 -72 -27q-47 0 -78 35q-14 -45 -14 -90zM741 1245 q0 57 56 58q57 0 57 -58q0 -57 -57 -57q-55 0 -56 57zM879 578z" />
<glyph unicode="R" d="M299 285q0 -53 38 -91t91 -38q23 0 47 10l201 55v-201h694v201l201 -55q25 -10 47 -10q53 0 91 37.5t38 91.5q0 41 -23 71l-331 455q-41 78 -146 86h-448q-31 -2 -56 -12q-63 -23 -90 -74l-331 -455q-23 -31 -23 -71zM301 -104q0 -31 33 -31h1403q33 0 32 31q0 33 -32 32 h-1403q-33 0 -33 -32zM676 477v266l348 -112l346 112v-266l-24 8q-27 8 -52 9q-55 0 -89 -38t-34 -89q0 -96 105 -119h6l-258 -86l-260 86h6q104 23 104 119q0 51 -34.5 89t-87.5 38q-25 0 -52 -9zM803 1178q0 -92 65.5 -159t159.5 -67q92 0 158.5 66.5t66.5 159.5 q0 94 -66.5 159.5t-158.5 65.5q-94 0 -159.5 -65.5t-65.5 -159.5zM1804 1597zM1804 1638z" />
<glyph unicode="S" d="M371 45q-1 -7 -1 -13q0 -65 95 -71h414q95 5 95 71q0 6 -1 13v317h-602v-317zM371 524h604v371q0 33 -23 78l-170 295q-23 39 -69 39h-135q-35 0 -59.5 -25t-24.5 -61q0 -25 14 -45q61 -94 61 -199q0 -80 -47 -170q-51 -100 -121 -125q-31 -20 -30 -57v-101zM948 442 q0 -29 29 -28h96q29 -1 29 28t-29 29h-96q-29 0 -29 -29zM1071 45q-1 -7 -1 -13q0 -65 95 -71h416q95 5 95 71q0 6 -1 13v317h-604v-317zM1071 524h604v101q0 41 -33 59q-78 39 -122.5 119t-44.5 174q0 47 18 109.5t47 91.5q12 18 12 43q0 37 -25.5 61.5t-60.5 24.5h-133 q-47 0 -69 -39l-170 -295q-23 -45 -23 -78v-371z" />
<glyph unicode="T" d="M160 1298l2 -299l706 88v121zM641 -207h762l-166 1196h43q23 0 23 23t-23 22h-514q-23 0 -23 -22q0 -23 23 -23h43zM766 1278q0 -10 10 -10h492q12 0 12 10q0 6 -6 10l-252 139l-250 -139q-6 -4 -6 -10zM1178 1090l706 -91v299l-706 -90v-118z" />
<glyph unicode="U" d="M287 455l129 -693h415l130 693h-99l-112 -596h-252l-113 596h-98zM506 651l76 -78l75 78l-75 76zM565 225h105v107h-105v-107zM573 471l76 -76l78 76l-78 78zM717 782q0 -53 63 -53h248q31 0 51 31l125 186v-1108q0 -33 23.5 -55.5t56.5 -22.5q35 0 58.5 22.5t23.5 55.5 v643h74v-643q0 -33 23.5 -55.5t56.5 -22.5q35 0 58.5 22.5t23.5 55.5v1108h73v-407q0 -61 58 -62q55 0 55 62v415q0 70 -61.5 125.5t-145.5 55.5h-285q-102 0 -155 -80l-144 -219h-217q-63 0 -63 -54zM1255 1311q0 -57 42.5 -97t103.5 -40q59 0 101 39.5t42 97.5 q0 55 -42 95t-101 40t-102.5 -40t-43.5 -95z" />
<glyph unicode="V" d="M301 -203h1444v1155h-1444v-1155zM424 -82v913h1200v-913h-1200zM608 1264q0 -82 58.5 -140.5t140.5 -58.5q115 0 172 100l80 2l61 62l47 -47l50 47l47 -47l49 49l49 -51l84 86q7 7 7 14t-7 14l-68 68l-401 2q-57 98 -170 98q-82 0 -140.5 -58t-58.5 -140zM621 176 q-1 -78 75 -78h58v510h-58q-29 0 -52 -22.5t-23 -55.5v-354zM666 1266q0 55 53 55t53 -55q0 -53 -53 -54q-53 0 -53 54zM815 98h416v508h-103v72q0 45 -51 45h-108q-51 0 -51 -45v-72h-103v-508zM954 606v74h136v-74h-136zM1294 98h56q75 0 75 78v354q0 33 -22.5 55.5 t-52.5 22.5h-56v-510z" />
<glyph unicode="W" d="M233 186h129v246h1324v-246h129v369h-1453v532q0 63 -63 64q-66 0 -66 -64v-901zM444 944q0 -49 34 -83t83 -34t83 34t34 83t-34 83t-83 34t-83 -34t-34 -83zM446 709q0 -57 58 -58h1313v160q0 84 -93 92l-917 92q-2 0 -4 2q-59 0 -60 -57v-174h-239q-58 0 -58 -57z" />
<glyph unicode="X" d="M516 -205h139l21 96l344 420l344 -420l20 -96h140l-238 1079l137 3v393l-403 180l-404 -180v-393l138 -3zM733 145l88 406l123 -148zM768 1016v198h504v-198h-504zM854 698l39 176h254l39 -176l-166 -202zM1096 403l121 148l90 -406z" />
<glyph unicode="Y" d="M266 283q0 -66 68 -66q10 0 18 2l54 19q66 -197 234.5 -322t381.5 -125q211 0 383 127q166 123 231 320l54 -19q8 -2 18 -2q68 0 68 66q0 4 -2 14l-50 309q-8 49 -61 49q-25 0 -45 -20l-227 -213q-25 -20 -25 -49q0 -49 45 -64l57 -18q-43 -117 -137 -200t-217 -107v1009 q137 59 137 209q0 92 -66.5 158.5t-160.5 66.5q-92 0 -158.5 -66.5t-66.5 -158.5q0 -150 139 -209v-1011q-125 25 -223.5 107.5t-141.5 201.5l58 18q45 14 45 64q0 27 -23 49l-229 213q-20 20 -45 20q-53 0 -62 -49l-49 -309q-2 -10 -2 -14zM932 1202q0 37 27.5 64.5 t64.5 27.5q39 0 66.5 -27.5t27.5 -64.5q0 -39 -27.5 -66.5t-66.5 -27.5q-37 0 -64.5 27.5t-27.5 66.5z" />
<glyph unicode="Z" d="M377 -72q0 -45 31.5 -73.5t70.5 -28.5q47 0 76 35l700 862q70 86 197 123q92 27 151.5 104.5t59.5 175.5q0 80 -41 149.5t-102 102.5l-2 -235l-152 -121l-149 117v239q-53 -27 -93 -80q-51 -68 -51 -147q0 -23 4 -45q0 -10 13 -78q12 -59 12 -94q0 -20 -4 -35 q-12 -55 -29.5 -83t-107.5 -136l-560 -682q-25 -31 -24 -70z" />
<glyph unicode="[" d="M662 545q0 -61 53 -62q55 0 55 62v411h64v-1114q0 -33 22.5 -55.5t54.5 -22.5q31 0 53.5 23t22.5 55v645h66v-645q0 -33 22.5 -55.5t52.5 -22.5q33 0 55.5 23t22.5 55v1114h66v-411q0 -61 53 -62q53 0 53 62v420q0 72 -50 126t-128 54h-364q-72 0 -123 -52.5t-51 -125.5 v-422zM883 1311q0 -57 40 -97t97 -40t97 39.5t40 97.5q0 57 -40 97t-97 40t-97 -40t-40 -97z" />
<glyph unicode="\" d="M147 553q0 -16 19 -16q10 0 45 12t59 12q51 0 95 -22l393 -217l-2 75l-344 191q-51 29 -117 28q-88 0 -141 -49q-6 -6 -7 -14zM152 94q0 -123 86 -208t206 -85q121 0 207 85t86 208q0 121 -86 206t-207 85t-206.5 -85t-85.5 -206zM242 94q0 84 59 143.5t143 59.5 t143.5 -59.5t59.5 -143.5q0 -86 -59.5 -145.5t-143.5 -59.5t-143 59.5t-59 145.5zM449 715q0 -66 49 -92l327 -183v-309q0 -33 22.5 -56.5t55.5 -23.5t56.5 23.5t23.5 56.5v387q10 57 -59 94l-205 107l149 227l78 -123q23 -35 58 -35h202q61 0 62 54q0 53 -62 53h-164 l-165 254q-33 37 -82 37q-59 0 -86 -43l-246 -373q-14 -23 -14 -55zM737 1300q0 -29 8 -53h82q4 -8 13 -22q43 -59 112 -60q57 0 97.5 41t40.5 97q0 43 -3 49h54q-18 66 -72.5 109.5t-126.5 43.5q-84 0 -144.5 -60.5t-60.5 -144.5zM1051 94q51 0 84 37l301 344l-78 152 l-307 -88v-445zM1225 735q0 -33 32 -33l95 3q27 0 39 -27l133 -272l65 22l-141 285q-29 57 -96 57h-95q-32 0 -32 -35zM1362 94q0 -123 85 -208t208 -85q121 0 206 85t85 208q0 121 -85 206t-206 85q-123 0 -208 -85t-85 -206zM1452 94q0 84 59.5 143.5t143.5 59.5 t143.5 -59.5t59.5 -143.5q0 -86 -59.5 -145.5t-143.5 -59.5t-143.5 59.5t-59.5 145.5zM1522 666l37 -70q49 41 98 41q25 0 60.5 -12.5t43.5 -12.5q18 0 19 17q0 8 -6 12q-53 51 -132 51q-37 0 -120 -26z" />
<glyph unicode="]" d="M158 874q-2 -90 78 -239q61 -113 104 -164q33 12 66.5 24.5t72.5 12.5q37 0 102.5 -22.5t100.5 -22.5q37 0 102.5 22.5t102.5 22.5t101.5 -22.5t101.5 -22.5t101 22.5t101 22.5t102.5 -22.5t100.5 -22.5q37 0 102.5 22.5t102.5 22.5t101.5 -22.5t101.5 -22.5l-33 268 l-1229 103l184 186l-80 8l-186 -188zM276 186q37 0 102.5 22.5t100.5 22.5q37 0 102.5 -22.5t100.5 -22.5q37 0 102.5 22.5t102.5 22.5t101.5 -22.5t101.5 -22.5t101 22.5t101 22.5t102.5 -22.5t100.5 -22.5q37 0 102.5 22.5t102.5 22.5t101.5 -22.5t101.5 -22.5v152 q-37 0 -101.5 22.5t-101.5 22.5t-102.5 -22.5t-102.5 -22.5q-35 0 -100.5 22.5t-102.5 22.5t-101.5 -22.5t-100.5 -22.5q-37 0 -101.5 22.5t-101.5 22.5t-102.5 -22.5t-102.5 -22.5q-35 0 -100.5 22.5t-102.5 22.5q-35 0 -100.5 -22.5t-102.5 -22.5v-152zM848 946 q0 -41 28.5 -69.5t69.5 -28.5t69.5 28.5t28.5 69.5t-28.5 69.5t-69.5 28.5t-69.5 -28.5t-28.5 -69.5zM1493 815l297 -24l-23 151l-217 16q-59 -2 -51 -57z" />
<glyph unicode="^" d="M584 -78h274v451h305q199 0 338 139t139 336q0 199 -139 338t-338 139h-579v-1403zM858 643v422h309q88 0 149.5 -61.5t61.5 -149.5t-61.5 -149.5t-149.5 -61.5h-309z" />
<glyph unicode="_" d="M201 -76v-100h125v100h-125zM201 190h125v101h-125v-101zM449 -76v-100h126v100h-126zM449 190h126v101h-126v-101zM594 68q-4 -35 18.5 -60.5t57.5 -30.5q51 -4 78 41l170 287q6 12 16 35l41 188l176 -194l55 -291q12 -59 76 -66q35 -2 60.5 20.5t27.5 55.5v19l-57 309 q-4 14 -10 27l-220 258l56 243l47 -92q4 -8 14 -16l184 -127q8 -2 25 -8q55 -2 59 51q3 33 -20 49l-170 117l-123 243q-37 57 -98 62q-49 4 -86 -25l-246 -200q-14 -10 -16 -27l-56 -242l-2 -6q-2 -55 51 -59q49 -4 60 45l45 207l86 69l-131 -581l-158 -267q-10 -14 -10 -34 zM702 -76v-100h125v100h-125zM950 -76v-100h127v100h-127zM950 190h127v101h-127v-101zM963 1346q-4 -51 28.5 -90.5t83.5 -43.5q51 -2 89 31t42 82q4 51 -28.5 90t-83.5 43q-49 4 -88 -28.5t-43 -83.5zM1206 -76v-100h127v100h-127zM1456 -76v-100h127v100h-127zM1456 190 h127v101h-127v-101zM1706 -76v-100h125v100h-125zM1706 190h125v101h-125v-101z" />
<glyph unicode="`" d="M319 1176l857 -406l26 64l-883 423v-81zM338 766q0 -33 29 -49l135 -78v-651q0 -41 28.5 -70t69.5 -29q43 0 71.5 29t28.5 70v256l179 -303q29 -49 86 -50q41 0 69.5 29t28.5 72q0 27 -14 49l-166 283h374v-336q0 -41 29 -70t70 -29t69.5 29t28.5 70v336q33 0 33 41v249 l-313 154h-664l-86 47q-14 8 -29 8q-57 0 -57 -57zM1204 836l283 -136v54h229l84 182l-596 283v-383z" />
<glyph unicode="a" d="M199 20v-149q37 0 102.5 22.5t101.5 22.5q35 0 100.5 -22.5t102.5 -22.5t101.5 22.5t101.5 22.5t101.5 -22.5t101.5 -22.5t102.5 22.5t102.5 22.5q35 0 100 -22.5t102 -22.5q35 0 100.5 22.5t102.5 22.5t101.5 -22.5t101.5 -22.5v149q-37 0 -101.5 23t-101.5 23 t-102.5 -23t-100.5 -23q-37 0 -102.5 23t-99.5 23q-37 0 -102.5 -23t-102.5 -23t-101.5 23t-101.5 23t-101.5 -23t-101.5 -23t-101.5 23t-101.5 23t-102 -23t-102 -23zM266 158q70 32 133 32h4q63 0 125 -28q37 -16 78 -17q41 0 78 17q57 28 121 28h4q39 0 103.5 -22.5 t99.5 -22.5q41 0 78 17q59 28 123 28h4q41 0 78.5 -12t74.5 -26q522 139 522 223q0 21 -20 31q-2 2 -565 286l-144 187q-16 14 -32 14q-18 0 -35 -19q-20 -25 -6 -53l106 -137l-88 -201l-231 58l-11 84l191 22q61 8 61 66q0 27 -22.5 47t-48.5 16l-195 -22l-18 143 q-6 55 -52 91q-37 29 -80 29q-10 0 -20 -1q-57 -6 -92 -51q-30 -38 -30 -85q0 -8 1 -16l41 -334q8 -66 64 -100l-306 -37zM594 1171q6 -57 50 -91q37 -29 84 -30q8 0 17 1q57 8 92 52q28 36 29 80q0 10 -2 21q-6 55 -50 91q-36 29 -81 29q-10 0 -20 -1q-57 -6 -92 -51 q-28 -37 -28 -81q0 -10 1 -20z" />
<glyph unicode="b" d="M176 489h344l-190 -475h186l193 475h622l193 -475h188l-192 475h346v152h-408l-166 408h277v151h-1096v-151h275l-166 -408h-406v-152zM752 641l166 408h169l166 -408h-501z" />
<glyph unicode="c" d="M195 518l163 72v-715h1454v150h-1304v634l1304 588v158l-1617 -731v-156zM768 344h168l-94 -225h98l92 225h299l92 -225h97l-93 225h168v82h-198l-80 192h133v82h-537v-82h134l-78 -192h-201v-82zM1065 426l80 192h74l79 -192h-233z" />
<glyph unicode="d" d="M281 786q0 -68 48 -115.5t115 -47.5q68 0 116 47.5t48 115.5t-48 116t-116 48t-115.5 -48t-47.5 -116zM496 1516l364 -639l47 34l-344 605h-67zM520 518q0 -55 31 -92l266 -268q35 -43 88 -43q51 0 107 35l340 241h268q45 0 79 33t34 80q0 45 -34 78.5t-79 33.5h-322 q-31 0 -67 -24l-246 -174l-172 168l238 174q32 22 32 61q0 35 -23.5 62.5t-62.5 27.5q-31 0 -57 -18l-371 -264q-49 -35 -49 -111zM979 670l88 -156l47 35l-88 153zM1139 154l30 -43q6 -8 15 -8q5 0 10 3l223 164q7 5 7 12q0 5 -3 11l-30 43q-6 7 -13 7q-6 0 -12 -5 l-223 -162q-7 -6 -7 -13q0 -4 3 -9z" />
<glyph unicode="e" d="M250 1315q0 -31 20 -53l441 -441h-312q-31 0 -53 -21.5t-22 -54.5q0 -31 22.5 -52t52.5 -21h494q31 0 52.5 21t21.5 52l2 494q0 31 -22.5 53.5t-53.5 22.5t-53.5 -22.5t-22.5 -53.5v-311l-440 440q-23 23 -53 23q-31 0 -52.5 -22.5t-21.5 -53.5zM913 256 q0 -31 22.5 -53.5t53.5 -22.5h213l-149 -149q-23 -23 -23 -54t21.5 -53t54.5 -22q31 0 51 22l152 150v-211q0 -33 21.5 -54.5t51.5 -21.5q33 0 54.5 21.5t21.5 54.5v211l150 -150q23 -23 53 -22q33 0 54.5 22.5t21.5 52.5q0 31 -23 54l-149 149h213q31 0 52 22.5t21 53.5 t-21 52.5t-52 21.5l-213 2l149 149q23 23 23 54t-22.5 52t-53.5 21t-53 -20l-150 -152v213q0 31 -21.5 53.5t-54.5 22.5q-31 0 -52 -22.5t-21 -53.5v-213l-152 152q-20 20 -51 20q-33 0 -54.5 -21.5t-21.5 -51.5q0 -31 23 -54l149 -151h-213q-31 0 -53.5 -21.5t-22.5 -52.5z " />
<glyph unicode="f" d="M213 -2h1634v1241h-1634v-1241zM328 193v849l424 -426zM403 113l426 424l19 -19q74 -72 178 -72t176 72l19 19l426 -424h-1244zM406 1122h1241l-523 -520q-39 -39 -98 -39q-61 0 -102 41zM1305 616l424 426v-849z" />
<glyph unicode="g" d="M176 1225q80 -18 148 -47q165 -72 251 -189l132 107q-84 143 -277 256q-164 94 -254 94v-221zM489 145q0 -59 60 -59h123q8 123 97 209t214 86t214 -86t97 -209h564v451h-412l147 247q12 23 37 56q20 16 43 16h217v86h-217q-84 0 -119 -55l-208 -342l-328 540h-100 l335 -555q-186 -14 -305 -24q-223 -22 -344 -51q-72 -14 -94 -176zM569 680q0 -47 33 -81t80 -34t80 34t33 81q-2 23 -15 63q-29 96 -98 258q-105 -241 -113 -321zM760 66q0 -92 65.5 -158t157.5 -66q94 0 159.5 65.5t65.5 158.5q0 94 -65.5 159.5t-159.5 65.5 q-92 0 -157.5 -65.5t-65.5 -159.5zM887 66q0 41 28.5 69.5t67.5 28.5q41 0 69.5 -29t28.5 -69q0 -39 -28.5 -68t-69.5 -29q-39 0 -67.5 29t-28.5 68z" />
<glyph unicode="h" d="M250 233h1538v635h-270v138q0 37 -28 64.5t-65 27.5h-807q-39 0 -66.5 -28t-27.5 -64v-138h-274v-635zM319 541q0 96 69 164.5t167 68.5q96 0 164.5 -68.5t68.5 -164.5t-68.5 -165t-164.5 -69q-98 0 -167 68.5t-69 165.5zM618 868v150h807v-150h-807zM846 539v233h348 v-233h-348zM1251 541q0 96 69 164.5t165 68.5t164.5 -68.5t68.5 -164.5t-68.5 -165t-164.5 -69t-165 68.5t-69 165.5z" />
<glyph unicode="i" d="M276 395h177v-583h424v462h294v-452h424v573h177l-598 385v353h120q33 0 49 -19q8 -10 17 -22q31 -29 59 -29h133v299h-133q-29 0 -59 29q-8 12 -17 22q-16 16 -49 17h-184v-609l-86 56z" />
<glyph unicode="j" d="M217 909q0 -180 115 -295l223 -221q27 -25 27 -61q0 -37 -23 -60l-110 -106l104 -105l106 107q70 70 70 166q0 98 -70 168l-206 209q-84 82 -84 198q0 115 83 197t197 82q117 0 199 -82t82 -197l-2 -624q0 -188 134 -322.5t322 -134.5q190 0 323.5 134t133.5 323 q0 190 -133 323l-258 256q-25 27 -25 62q0 37 23 59l70 72q6 6 16 6q8 -2 14 -6l39 -35q8 -6 21 -6q5 -2 11 -2q48 0 101 188q4 18 4 33q0 33 -20 55l-55 47q-25 22 -60 22q-13 0 -28 -3q-191 -50 -191 -99q0 -5 2 -10q0 -12 6 -20l35 -41q4 -4 4 -12q0 -10 -6 -17l-65 -65 q-70 -70 -70 -166q0 -98 70 -168l256 -256q90 -90 90 -217t-90.5 -216t-217.5 -89t-216 89t-89 216v624q0 178 -126 304t-304 126q-180 0 -306 -126t-126 -304zM229 -61l25 -74l76 -25h5q11 0 19 8q20 20 0 41l-78 76q-20 20 -38 0q-10 -10 -10 -20q0 -3 1 -6zM307 4l86 -86 q10 -9 19.5 -9t19.5 9q20 20 0 41l-86 86q-20 20 -39 0q-10 -10 -10 -20.5t10 -20.5zM381 80l86 -86q10 -10 20.5 -10t20.5 10q18 18 0 39l-88 86q-18 20 -39 0q-10 -10 -10 -19.5t10 -19.5zM1696 1356l24 -25l43 41h92v37l-81 -2v84h-35v-92z" />
<glyph unicode="k" d="M164 317q0 -51 51 -51h139q6 86 80 147.5t164 61.5t163 -61.5t79 -147.5h520q6 86 79.5 146.5t164.5 60.5q90 0 162.5 -60.5t78.5 -146.5h47q51 0 52 51v97h-50v94q0 63 -59 82l-80 28l-164 236q-12 16 -32 16h-261q-31 0 -53 -22.5t-22 -54.5v-275h-1059v-201zM164 596 h981v217q0 55 39 95t94 40h215q25 0 25 25q0 6 -5 14l-124 180q-14 14 -33 15h-1059q-133 -8 -133 -135v-451zM360 795v180q0 29 29 29h416q29 0 29 -29v-180q0 -29 -29 -29h-416q-29 0 -29 29zM436 231q0 -68 47 -114.5t115 -46.5q66 0 113 47t47 114q0 66 -47 113t-113 47 q-68 0 -115 -47t-47 -113zM528 231q0 29 20.5 49.5t49.5 20.5t49.5 -20.5t20.5 -49.5t-20.5 -49t-49.5 -20t-49.5 20.5t-20.5 48.5zM1165 1028v74q0 22 21 22h2h145q6 0 10 -4l66 -94q2 -4 2 -8q0 -12 -12 -12h-211q-23 0 -23 22zM1331 612v142q0 45 45 45h150q12 0 20 -11 l127 -182q4 -6 4 -14q1 -25 -24 -25h-277q-45 0 -45 45zM1442 227q0 -66 47 -112.5t113 -46.5q68 0 114.5 47t46.5 112q0 68 -46.5 114t-114.5 46q-66 0 -113 -46t-47 -114zM1532 227q0 29 20.5 49.5t49.5 20.5t49 -20.5t20 -49.5t-20 -49t-49 -20t-49.5 20.5t-20.5 48.5z " />
<glyph unicode="l" d="M209 735l156 -90l-97 -166q-12 -23 -12 -47q0 -25 12 -47l152 -264q10 29 20 49l189 324l153 -91l-190 332h-383zM481 80q0 -47 34 -80t81 -33h377v305h-398q-4 -8 -30 -53l-47 -82q-16 -27 -17 -57zM532 946q109 -63 265 -151q92 158 198 344l-75 135q-33 57 -99 57 t-98 -57zM944 1348q18 -20 31 -41l186 -324l-31 -18l-122 -72h381l192 332l-156 -90l-96 165q-27 47 -82 48h-303zM1120 123l191 -330v178h190q55 0 84 47l152 265q-31 -8 -51 -9l-375 2v37v142zM1329 686q127 -219 201 -346h153q68 0 101 57q15 27 15 54q0 29 -17 59 l-189 328q-10 -6 -264 -152z" />
<glyph unicode="m" d="M143 635q0 -47 47 -47q33 0 43 37l86 286h48l-142 -510h137v-397q0 -53 52 -53q51 0 51 53v399h51v-401q0 -51 51 -51t51 51v399h138l-144 510h50l86 -286q10 -37 43 -37q47 0 47 47q0 10 -4 18l-95 314q-10 33 -47 63q-45 37 -98 37h-219q-51 0 -92 -37q-31 -29 -41 -63 l-95 -314q-4 -10 -4 -18zM379 1200q0 -45 32.5 -77.5t77.5 -32.5q47 0 80 32.5t33 77.5q0 47 -32.5 80t-80.5 33q-45 0 -77.5 -33t-32.5 -80zM981 -51h109v1368h-109v-1368zM1278 584q0 -49 45 -49q43 0 43 49v331h53v-901q0 -61 62 -61q61 0 61 61v523h53v-523 q0 -61 62 -61q63 0 63 61v901h52v-331q0 -51 43 -52q43 0 43 52v338q0 59 -40.5 103t-103.5 44h-293q-59 0 -101 -42t-42 -103v-340zM1458 1202q0 -45 33 -77.5t78 -32.5t77.5 32.5t32.5 77.5q0 47 -32.5 79t-77.5 32t-78 -32t-33 -79z" />
<glyph unicode="n" d="M307 -47v-5q1 -34 25 -60q26 -26 63 -27h4q50 0 76 43l608 995l248 -160l129 211l-483 295q-158 98 -301 131q-59 14 -287 41l-8 -41q178 -41 297 -100q16 -10 231 -139l27 -125l-619 -1020q-10 -14 -10 -39zM936 -39l256 -92l104 33l-94 313l-223 -65zM1278 461l14 -156 l80 -67l139 163l-163 140zM1440 -115h211l98 109v207h-309v-316z" />
<glyph unicode="o" d="M164 530q20 -123 164 -319q47 20 100 20q35 0 100.5 -22.5t102.5 -22.5t101.5 22.5t101.5 22.5t101 -22.5t101 -22.5q39 0 84 17q59 20 78 24l260 297h-334l140 238l303 -166q25 -12 47 -12q33 0 53.5 21.5t20.5 49.5q0 45 -48 72l-434 240q-51 26 -98 26h-4 q-86 0 -127 -84l-223 -379h-590zM223 61v-151q37 0 102.5 22.5t102.5 22.5q35 0 100.5 -22.5t102.5 -22.5t101.5 22.5t101.5 22.5t101 -22.5t101 -22.5t102.5 22.5t100.5 22.5q37 0 102.5 -22.5t102.5 -22.5q35 0 100.5 22.5t102.5 22.5q35 0 100 -22.5t102 -22.5v151 q-37 0 -101 22.5t-101 22.5t-101.5 -22.5t-101.5 -22.5t-102.5 22.5t-102.5 22.5q-35 0 -100.5 -22.5t-102.5 -22.5t-101.5 22.5t-100.5 22.5q-37 0 -101.5 -22.5t-101.5 -22.5t-101.5 22.5t-101.5 22.5t-102.5 -22.5t-102.5 -22.5zM1110 1141q0 -61 44.5 -105.5 t105.5 -44.5q63 0 107 44t44 106q0 63 -44 107t-107 44q-61 0 -105.5 -44t-44.5 -107zM1276 229q25 -4 80 -24q47 -18 88 -19q35 0 100.5 22.5t102.5 22.5q35 0 100 -22.5t102 -22.5v338h-313z" />
<glyph unicode="p" d="M217 -88v-150q35 0 100.5 22.5t102.5 22.5t101.5 -22.5t101.5 -22.5t101 22.5t101 22.5t102.5 -22.5t100.5 -22.5q37 0 102.5 22.5t102.5 22.5q35 0 100.5 -22.5t102.5 -22.5t101.5 22.5t100.5 22.5q37 0 101.5 -22.5t101.5 -22.5v150q-37 0 -101.5 22.5t-101.5 22.5 t-101 -22.5t-101 -22.5t-102.5 22.5t-100.5 22.5q-37 0 -102.5 -22.5t-102.5 -22.5q-35 0 -100.5 22.5t-102.5 22.5t-101.5 -22.5t-100.5 -22.5q-37 0 -101.5 22.5t-101.5 22.5t-102.5 -22.5t-100.5 -22.5zM264 389h926v1131zM483 84q33 -10 68 -22.5t72 -12.5t102.5 22.5 t99.5 22.5q37 0 102.5 -22.5t100.5 -22.5q37 0 102.5 22.5t102.5 22.5q35 0 100.5 -22.5t102.5 -22.5l20 2h1h5q4 2 9.5 2t21.5 4q49 23 119 72l143 178h-1272v-223zM1276 389h555q4 37 4 72q0 260 -184 493q-158 204 -375 306v-871z" />
<glyph unicode="q" d="M137 -115q0 -29 20.5 -49t49.5 -20h1640q29 0 48.5 20.5t19.5 48.5l2 518h-819q49 12 81.5 52.5t32.5 93.5q0 61 -43 104t-104 43t-104 -43t-43 -104q0 -53 32.5 -93t83.5 -53h-286v-88h274q25 0 25 -24v-342q0 -45 -48 -45h-723q-47 0 -47 45v346q4 20 25 20h246v88 h-363v-518zM358 776q0 -80 56.5 -136t136.5 -56h285q4 80 72.5 136t152.5 56t152.5 -56t72.5 -136h629q0 53 -53 53h-99v473q0 109 -75.5 184.5t-184.5 75.5h-885q-106 0 -183 -75.5t-77 -184.5v-334zM506 139l100 -119q6 -10 19 -10q6 0 18 10l98 119q6 27 -16 31h-70v334 h-63v-334h-72q-15 -3 -15 -20q0 -5 1 -11zM559 1063v90q0 53 53 53h404q55 0 55 -53v-90q0 -53 -55 -53h-404q-53 0 -53 53zM1001 549q0 63 64 63q65 0 65 -61q0 -65 -65 -66q-64 1 -64 64zM1311 1065v88q0 53 53 53h186q53 0 54 -53v-88q0 -55 -54 -55h-186q-53 0 -53 55z " />
<glyph unicode="r" d="M201 1307l256 -263l98 89l-88 174h-266zM516 1016q-4 -14 -4 -28q0 -21 10 -40l287 -504q20 -35 84 -57l520 -145l242 -246q20 -20 49 -21q53 0 68 50q2 10 2 18q0 28 -23 51l-375 383q-33 35 -86 49l-372 105l-230 407q-27 47 -82 47q-72 0 -90 -69zM946 727 q-2 -8 -2 -15q0 -25 29 -32l307 -86l49 176l-307 86q-8 2 -15 2q-25 0 -32 -29zM1321 582l37 -11q12 -4 26 -4q37 0 65 27t28 65q0 70 -68 89l-39 10zM1460 494q0 -100 99 -129q17 -4 34 -4q31 0 62 14l55 -70l109 121l-93 51q1 10 1 19q0 46 -33 86q-40 46 -101 47 q-55 0 -94 -40t-39 -95z" />
<glyph unicode="s" d="M150 1042q0 -4 4 -18l92 -362q6 -29 39.5 -53.5t64.5 -30.5l553 -84l-59 -160l-430 -2q-18 0 -19 -15v-28q0 -16 19 -23q96 -29 268 -69q87 32 136 32h3q66 0 125 -28q37 -16 78 -17q41 0 78 17q59 28 121 28h4q41 0 105.5 -22.5t99.5 -22.5q41 0 77 17q57 28 121 28h4 q61 0 119 -26q51 18 141 63q12 10 13 25v26q0 16 -17 17h-417l-60 162q133 20 191 36q37 10 53 43l123 189v-236q0 -20 20 -20t21 20v244h16q37 0 37 37q0 35 -37 35h-16v237q0 20 -21 21q-20 0 -20 -21v-237h-11q-238 23 -278.5 45t-118.5 63q-28 13 -64 13q-14 0 -30 -2 q-129 -25 -268 -60q-74 -18 -336 -125h-211q-31 8 -55 62q-16 41 -33 82l-53 108q-6 10 -25 12l-135 9q-12 0 -12 -9zM211 61v-149q37 0 101.5 21.5t101.5 21.5t102.5 -21.5t99.5 -21.5q37 0 102.5 21.5t102.5 21.5t101.5 -21.5t101.5 -21.5t102.5 21.5t100.5 21.5 q37 0 102.5 -21.5t102.5 -21.5q35 0 100 21.5t102 21.5t101.5 -21.5t101.5 -21.5v149q-37 0 -101.5 22.5t-101.5 22.5t-102.5 -22.5t-99.5 -22.5q-37 0 -102.5 22.5t-102.5 22.5q-35 0 -100.5 -22.5t-102.5 -22.5t-101.5 22.5t-101.5 22.5t-102.5 -22.5t-102.5 -22.5 q-35 0 -100 22.5t-102 22.5t-101.5 -22.5t-101.5 -22.5zM883 778v21q0 14 14 22q55 25 119 41q96 25 203 45l49 -147h-369q-16 0 -16 18zM891 334l59 160h416l59 -160h-534zM1270 918q4 2 12 2q14 3 27 3q24 0 41 -10l114 -57q12 -7 12 -17q0 -5 -3 -12q-8 -14 -33 -55 q-6 -10 -25 -12h-92z" />
<glyph unicode="t" d="M289 393q0 -162 196 -315l277 -217q6 -2 10 -2q17 0 23 22q4 10 6 31v7q0 32 -15 87q-31 100 -106 154h455q90 0 172 30l-43 -215q-4 -18 11 -32.5t36 -5.5q8 4 14 10l203 211q39 41 39 100q0 57 -41 109q80 119 80 264v395l182 92q12 8 20 27l13 51q2 23 -21 25l-125 26 q-53 47 -133 51q-5 1 -11 1q-37 1 -81 -23q-51 -26 -72 -66l-252 -452l-577 -115q-201 -41 -246 -168q-14 -41 -14 -82z" />
<glyph unicode="u" d="M158 725q-2 -7 -2 -13q0 -21 26 -26l99 -24q31 -8 38 24l82 338q8 33 -24 41l-96 25q-33 8 -41 -25zM180 -111v-16q0 -35 23.5 -58.5t58.5 -23.5q63 0 78 59l141 584l135 -581q14 -61 80 -62q35 0 58.5 23.5t23.5 58.5q0 10 -2 18l-184 773l16 67l10 -53q4 -10 11 -19 q14 -18 33 -20l190 -47q4 -2 12 -2q55 0 56 57q0 43 -43 53l-164 41l-45 185q-69 100 -119 100h-2q-27 -2 -49 -10q-55 -25 -70 -88zM465 1165q0 -47 34 -81.5t83 -34.5t82.5 34.5t33.5 81.5q0 49 -33.5 84t-82.5 35t-83 -35t-34 -84zM872 1366l269 -156v312zM956 -205h134 v547l266 264q18 20 18 49q0 66 -67 66q-27 -1 -47 -19l-304 -305v-602zM1237 -150q0 -29 19.5 -48t48.5 -19t49 19.5t20 47.5q0 29 -20 49.5t-49 20.5q-68 0 -68 -70zM1237 1366q0 -27 20.5 -47.5t47.5 -20.5q29 0 49 20.5t20 47.5q0 70 -69 70q-68 0 -68 -70zM1489 -150 q0 -29 20.5 -48t49.5 -19q68 0 67 67q1 70 -67 70q-29 0 -49.5 -20.5t-20.5 -49.5zM1489 1368q0 -29 20.5 -49.5t49.5 -20.5t48 20.5t19 49.5q0 68 -67 68q-29 0 -49.5 -19.5t-20.5 -48.5zM1808 35h2q29 0 49.5 19.5t20.5 47.5q0 29 -20.5 49.5t-49.5 20.5q-67 0 -67 -68 q0 -69 65 -69zM1743 -150q0 -69 65 -69h2q29 0 49.5 20.5t20.5 48.5q0 29 -20.5 48.5t-49.5 19.5q-68 0 -67 -68zM1743 356q-1 -69 67 -69q29 0 49.5 20.5t20.5 48.5q0 29 -20.5 48.5t-49.5 19.5q-68 0 -67 -68zM1808 541h2q29 0 49.5 19.5t20.5 47.5q0 29 -20.5 49.5 t-49.5 20.5q-67 0 -67 -68q0 -69 65 -69zM1743 860q-1 -67 67 -67q29 0 49.5 20.5t20.5 46.5q0 70 -70 70q-68 0 -67 -70zM1743 1114q-1 -67 67 -67q29 0 49.5 19t20.5 48q0 68 -70 68q-68 0 -67 -68zM1743 1366q-1 -68 67 -68q29 0 49.5 20.5t20.5 47.5q0 70 -70 70 q-68 0 -67 -70z" />
<glyph unicode="v" d="M197 487l161 72v-653h1454v151h-1302v572l1302 588v157l-1615 -731v-156z" />
<glyph unicode="w" d="M180 1417l49 -49l-30 -104l49 -50l239 244l-49 49l-108 -41l-49 52zM293 1180v-7q0 -33 35 -38q6 -1 11 -1q31 0 36 35q1 5 1 9q0 30 -36 36q-5 1 -10 1q-32 0 -37 -35zM348 1042q-1 -5 -1 -10q0 -34 38 -39q6 -1 12 -1q32 0 37 38q1 5 0 10q0 34 -37 39q-5 1 -10 1 q-34 0 -39 -38zM358 1237q0 -36 39 -37h4q37 0 39 39v4q0 36 -39 37h-4q-39 0 -39 -43zM403 903q-1 -6 -1 -12q0 -32 40 -39q7 -1 13 -1q34 0 39 40q1 5 1 10q0 36 -40 41q-7 1 -12 1q-34 0 -40 -40zM463 1266h4q39 2 39 37v4q-2 39 -39 39h-4q-39 -2 -39 -39q0 -41 39 -41z M440 1126q0 -39 41 -41h4q39 0 41 41v4q0 39 -41 41h-4q-41 0 -41 -45zM457 766q-1 -5 -1 -10q0 -38 42 -45q7 -1 13 -1q37 0 42 42q1 7 1 13q0 37 -42 42q-7 1 -12 1q-36 0 -43 -42zM489 1366q6 -36 38 -36q5 0 10 1q35 5 35 34q0 5 -1 11q-5 36 -37 36q-5 0 -10 -1 q-35 -5 -35 -38v-7zM512 629q-1 -7 -1 -13q0 -39 44 -47q6 -1 11 -1q41 0 46 44q1 7 1 13q0 39 -44 47q-6 1 -11 0q-41 1 -46 -43zM522 1016q0 -41 43 -43h7q40 0 42 43v4q0 41 -45 43h-4q-43 0 -43 -47zM576 1178h4q41 2 41 41v4q-2 43 -42 43h-4q-43 -2 -43 -43 q0 -45 44 -45zM539 133q0 -37 26.5 -63.5t63.5 -26.5h241v-295h531v606l442 445q33 33 33 67q0 33 -22.5 55.5t-55.5 22.5q-36 0 -67 -33l-404 -403h-401q-51 0 -84 -35l-283 -283q-20 -25 -20 -57zM567 489q-1 -7 -1 -13q0 -41 46 -48q5 -1 10 -1q44 0 52 48q1 5 1 10 q0 43 -48 50q-6 1 -12 0q-43 1 -48 -46zM604 903q0 -43 45 -45h4q45 0 47 45v4q0 45 -45 47h-4q-47 0 -47 -51zM633 1305q3 -36 34 -36q6 0 13 1q38 5 38 37q0 4 -1 10q-5 38 -39 38q-5 0 -10 -1q-36 -5 -36 -39q0 -5 1 -10zM686 1090h4q45 2 45 45v4q-2 45 -45 45h-4 q-45 -2 -45 -45q0 -49 45 -49zM686 797v-7q0 -44 47 -47h4q49 0 49 54q0 47 -47 49h-4q-47 0 -49 -49zM797 1004h4q51 2 49 51q-4 49 -49 49h-4q-47 -4 -47 -49q0 -51 47 -51zM768 686v-7q0 -46 49 -48h4q53 0 53 53q0 49 -51 53h-4q-49 0 -51 -51zM774 1245q5 -40 41 -40 q5 0 10 1q40 7 39 41v10q-7 40 -43 39h-10q-38 -5 -38 -41q0 -4 1 -10zM856 967q4 -52 53 -52h4q53 2 52 56q-4 51 -54 51h-4q-53 -2 -51 -55zM915 741q0 -84 59.5 -143t143.5 -59t144.5 59t60.5 143q0 86 -60.5 145.5t-144.5 59.5t-143.5 -59.5t-59.5 -145.5zM915 1186 q6 -42 44 -42q5 0 10 1q42 7 41 43v10q-7 42 -46 41h-10q-40 -5 -40 -43q0 -4 1 -10zM928 43q100 0 100 90q0 88 -100 88q4 45 39 45h94q16 0 33.5 -16.5t17.5 -32.5v-174q0 -16 -17.5 -32.5t-33.5 -16.5h-94q-39 0 -39 49zM1057 1124q7 -42 44 -42q6 0 13 1q42 5 42 43 q0 6 -1 13q-5 44 -45 44q-5 0 -10 -1q-44 -5 -44 -47q0 -5 1 -11zM1198 1065q7 -44 46 -44q6 0 13 1q44 5 44 44q0 6 -1 13q-5 46 -47 46q-5 0 -10 -1q-46 -7 -46 -49q0 -5 1 -10zM1341 1006q6 -49 49 -49q6 0 13 1q46 7 46 49q0 6 -1 13q-7 48 -49 48q-6 0 -13 -1 q-46 -7 -46 -48q0 -6 1 -13z" />
<glyph unicode="x" d="M412 -20q0 -35 25.5 -60.5t62.5 -25.5q51 0 80 49l299 514l-125 125l-332 -562q-10 -16 -10 -40zM465 1122q0 -31 20.5 -51t51.5 -20h362l-137 -242q-20 -39 -21 -80q0 -68 50 -125l253 -252l-131 -229q-8 -16 -8 -41q0 -35 25.5 -60.5t60.5 -25.5q51 0 80 49l174 309 q14 25 15 54q0 49 -41 92l-203 200l201 351h417q31 0 51.5 20.5t20.5 50.5q0 29 -20.5 50.5t-51.5 21.5h-1097q-31 0 -51.5 -21.5t-20.5 -50.5zM705 -92v-4q4 -33 30 -33h621q27 4 28 33v4q0 8 -2 14q-8 17 -26 19h-621q-27 0 -30 -33zM786 -229q0 -53 52 -54q51 0 51 54 q0 51 -51 51t-52 -51zM1028 1358q0 -57 41 -97t96 -40q57 0 97.5 39.5t40.5 97.5q0 55 -40 95t-98 40q-55 0 -96 -40t-41 -95zM1204 -229q0 -51 51 -52q51 0 52 52q-1 53 -52 53t-51 -53z" />
<glyph unicode="y" d="M233 -227l31 -47l1514 956q65 42 65 117q0 43 -22 75l-47 -28q12 -20 12 -45q0 -45 -39 -70zM365 111q0 -37 25.5 -64t62.5 -27q55 0 79 50l285 561l494 317q63 43 63 117q0 41 -20 74q-40 65 -115 65h-2q-41 0 -74 -22l-364 -234q-31 -23 -47 -51l-377 -745 q-10 -20 -10 -41zM1262 1323q0 -57 40 -97t97 -40t97 40t40 97t-40 97t-97 40t-97 -40t-40 -97z" />
<glyph unicode="z" d="M158 434l1272 -502q33 -12 75 -12q113 0 193 86l61 -20q10 -4 23 -4q31 0 52 21.5t21 51.5q0 52 -45 70l-223 88l-164 289q-12 29 -59 49l-535 213l-315 536q-31 53 -92 54q-43 0 -75 -32t-32 -75q0 -29 15 -51l393 -668l-250 99l-61 -37l995 -391l41 -66q14 -33 65 -53 l123 -49q-59 -57 -133 -58q-31 0 -59 13l-1219 489zM1481 508q0 -68 47.5 -115t113.5 -47q68 0 115 47t47 115t-47 115t-115 47q-66 0 -113.5 -47.5t-47.5 -114.5z" />
<glyph unicode="{" d="M182 657l156 62v-907h1429v143h-1280l-2 819l1282 488v155l-1585 -604v-156zM559 98q0 -51 51 -51h1155v141q0 74 -82 82l-794 80h-4q-51 0 -51 -49v-154h-224q-51 0 -51 -49zM567 315q0 -41 31 -71.5t74 -30.5q41 0 71.5 30.5t30.5 71.5q0 43 -30.5 74t-71.5 31 q-43 0 -74 -31t-31 -74z" />
<glyph unicode="|" d="M279 152h1259v223h-1259v-223zM897 1112q0 -90 62.5 -153.5t150.5 -65.5q-8 -25 -8 -51q0 -74 51 -124t123 -50h229q39 0 65.5 -28t26.5 -67v-124h64v124q0 66 -45 112t-111 46h-229q-45 0 -78 32t-33 79q0 33 21 61q6 10 6 21q0 37 -37 37q-6 0 -19.5 -2.5t-21.5 -2.5 q-63 0 -109.5 45.5t-46.5 110.5q0 63 45.5 108.5t108.5 47.5v63q-90 -2 -152.5 -65.5t-62.5 -153.5zM1169 1198h15q76 0 128 -52t52 -128q0 -61 -37 -109q-6 -10 -6 -20q0 -35 37 -35h92q111 0 188.5 -78t77.5 -188v-139h66v139q0 135 -97.5 232.5t-234.5 97.5h-45 q23 47 22 100q0 100 -70.5 172t-172.5 72h-15v-64zM1597 152h64v223h-64v-223zM1716 152h66v223h-66v-223z" />
<glyph unicode="}" d="M174 240q0 -31 20.5 -50.5t49.5 -19.5h743q29 0 49.5 19.5t20.5 50.5q0 27 -20.5 47t-49.5 20h-743q-29 0 -49.5 -20.5t-20.5 -46.5zM211 94q-14 -143 219 -153h375q233 10 217 153h-811zM211 381h811q16 143 -217 156h-375q-233 -12 -219 -156zM1087 997l134 -1056h452 l135 1056h-102l106 365l-63 18l-109 -383h-553z" />
<glyph unicode="~" d="M160 438q0 -55 55 -114q47 -53 104 -74l1151 -438q45 -16 95 -17q68 0 129 35q43 25 43 74q0 35 -25.5 60.5t-60.5 25.5q-25 0 -43 -13q-37 -20 -76 -4l-287 109q51 16 58 68l45 364v4q2 41 -27 66l-193 172l291 143l271 -250q20 -18 47 -18q66 0 65 65q0 29 -22 49 l-387 355q-25 25 -45 30l-299 107l-138 199q-16 23 -47 26q-63 8 -71 -57q-2 -25 10 -43l139 -201q8 -14 25 -20l161 -64l-266 -135q-59 -31 -71 -102l2 -244l-246 -111q-47 -20 -49 -73q0 -27 16 -52l-133 50q-39 16 -53 57q-18 57 -82 57q-35 0 -60.5 -24.5t-25.5 -61.5z M598 328q8 2 23 4l301 137q33 14 43 57l-2 150l208 -187l-36 -317q0 -2 -2 -6q0 -23 14 -47zM1327 1262q0 -57 40 -97.5t97 -40.5q55 0 95 40t40 98q0 57 -39.5 97t-95.5 40q-57 0 -97 -40t-40 -97z" />
<glyph unicode="&#xc4;" d="M264 16l434 -211q31 -16 66 -16q59 0 101 43t42 100q0 29 -18 70q-23 49 -47 47q6 0 10 -2l164 191q37 43 43 75l35 250l239 -237v-295l-354 -78v-70l471 -104q18 -4 35 -4q59 0 101 42t42 101t-42 101t-101 42v324q0 33 -27 84l-223 233l76 209l47 -141q12 -37 45 -47 l213 -82q10 -4 20 -4q35 0 56 43q14 60 -33 76l-186 67l-87 277q-4 37 -73 63l-139 54q-25 10 -50 10q-37 0 -65 -19l-244 -133q-20 -6 -51 -61l-102 -211q-6 -10 -7 -23q0 -31 37 -53q16 -10 31 -10q33 0 55 39l101 200l172 97l-125 -326l-58 -430l-190 -219l-397 6z M403 18l242 -4q-2 -39 22.5 -59.5t51.5 -20.5q35 0 57 27l33 37q43 -31 31 -82q-14 -61 -76 -61q-19 0 -29 4zM1116 -82l219 49q13 -61 74 -61q31 0 53.5 21.5t22.5 54.5v16q33 0 55.5 -23.5t22.5 -56.5t-22.5 -56.5t-55.5 -23.5q-4 0 -12 2zM1186 1339q0 -55 41 -96t96 -41 q57 0 97 41t40 96q0 57 -40 97.5t-97 40.5q-55 0 -96 -40t-41 -98z" />
<glyph unicode="&#xc5;" d="M115 -88h657l53 102h-657zM236 188q0 -51 49 -51h1132q45 -6 121 49l295 217l-111 195q-24 43 -118 59l-224 39l-118 201q-33 35 -68 4q-25 -23 -12 -53l88 -148l-111 -188l-223 84v84h176q68 0 68 65q0 63 -64 64h-180v145q0 57 -40 97.5t-97 40.5q-55 0 -96 -40 t-41 -98v-336q0 -66 51 -106h-305l-166 -301q-6 -10 -6 -23zM729 1257q0 -57 40 -97t97 -40t97.5 40t40.5 97t-40 97.5t-98 40.5q-57 0 -97 -40t-40 -98zM973 -88h713q53 18 116 43l146 111v122l-144 -110q-86 -64 -125 -64h-651z" />
<glyph unicode="&#xc7;" d="M127 -41q0 -39 27.5 -67.5t68.5 -28.5q37 0 64 26l276 267q16 20 21 39l55 245l186 -184v-311q0 -39 28 -68t67 -29q61 0 86 56q10 18 10 45v346q0 43 -25 67l-200 197l229 189l53 -148q6 -14 21 -25l219 -165q18 -12 39 -13q31 0 53 22.5t22 53.5q1 30 -26 57l-193 148 l-90 260q-16 49 -62 79t-98 30q-53 0 -96 -31l-299 -246q-31 -23 -45 -51q-12 -20 -22 -62l-90 -389l-250 -239q-29 -29 -29 -70zM428 975l76 -92q25 -31 55 -6l315 258q31 25 7 55l-74 92q-25 31 -55 4l-318 -256q-31 -25 -6 -55zM1028 1214q0 -23 6 -43h94q25 0 35 21 l19 41q10 25 37 24h143q-14 55 -60.5 91t-103.5 36q-72 0 -121 -49t-49 -121zM1085 1137q41 -59 113 -60q55 0 96 41t41 96v9h-116q-5 0 -7 -4l-18 -41q-18 -41 -66 -41h-43zM1403 1280q0 -14 10 -25l379 -372q8 -8 20 -9q33 0 78 66q45 59 66 127q12 45 12 96 q0 59 -16 103.5t-41 44.5h-477q-31 0 -31 -31z" />
<glyph unicode="&#xc9;" d="M168 725l162 63v-1009h1456v149h-1305v918l1305 495v158l-1618 -616v-158zM682 403h78v183l43 61v-219l-43 -63v-279q0 -49 51 -49q49 0 49 49v242l49 78v-82l111 -263q25 -43 67 -18q43 25 19 70l-94 225l45 76h254v-328q0 -49 49 -49t49 49v322l115 233q18 -6 37 -6 q104 0 131 102l12 -2q35 -6 53 27q27 45 -20 69l-150 103l8 82l-305 -318h-497q-45 0 -78 -32.5t-33 -77.5v-185zM1536 666l47 92l80 -15q-20 -80 -102 -79q-12 0 -25 2z" />
<glyph unicode="&#xd1;" d="M205 -66v-165h1650v163v2v9q-188 18 -325 4q-4 0 -23.5 -7.5t-23.5 -9.5q-74 4 -232 -8q-49 -8 -110 -8q-16 0 -144 6q-88 4 -147 -2q-70 -6 -191 -6q-145 2 -196 0q-39 29 -123 29q-25 0 -68 -2q-49 -2 -67 -5zM614 68q-4 -35 18.5 -61t57.5 -30q51 -4 78 41l170 287 q6 12 16 35l41 188l176 -194l56 -291q12 -59 76 -66q35 -2 60.5 20.5t29.5 55.5q-2 6 -2 19l-58 309q-4 14 -10 27l-219 258l57 243l45 -92q6 -10 15 -16l184 -127q16 -6 25 -8q55 -4 59 51q2 33 -21 49l-170 117l-122 243q-37 57 -99 62q-49 4 -86 -25l-246 -200 q-14 -10 -16 -27l-55 -242v-6q-6 -55 49 -59q49 -4 59 45l45 207l86 69l-131 -581l-157 -267q-10 -16 -11 -34zM983 1346q-4 -51 29 -90.5t84 -43.5q51 -2 89 31t42 82q4 51 -29 90t-84 43q-49 4 -88 -28.5t-43 -83.5zM1855 -66q-6 -2 0 -2v2z" />
<glyph unicode="&#xd6;" d="M256 -104q0 -55 55 -56h578q55 0 55 56v1148q0 166 -186 197h-301q-33 4 -70 -37l-117 -147q-14 -23 -14 -49v-1112zM317 700v304q0 14 11 26l67 86q53 55 84 55q23 0 23 -41v-299q0 -18 -10 -30l-97 -125q-14 -20 -33 -21q-45 0 -45 45zM502 1303h260v96h-260v-96z M1100 225q0 -8 2 -12q6 -84 53 -176q53 -106 107 -166l6 -4q41 -39 90 -39q68 0 106 53q39 -53 107 -53q49 0 90 39l4 4q25 25 109 166q47 92 53 176v12q0 88 -62.5 150.5t-150.5 62.5t-150 -61q-61 61 -149 61t-151.5 -62.5t-63.5 -150.5zM1384 545q0 -18 2 -37 q86 -2 150 27q152 71 162 280q-313 -43 -314 -270z" />
<glyph unicode="&#xdc;" d="M184 377q0 -27 21.5 -54.5t54.5 -27.5q27 0 53 18l213 164l166 133l-112 33q-29 6 -54 6q-37 0 -51 -14l-266 -209q-25 -18 -25 -49zM365 49q0 -76 54 -130t130 -54q78 0 132 54t54 130q0 78 -54 132.5t-132 54.5q-12 0 -37 -7q-12 31 -6 58q8 33 33 53l67 53l344 -112 q20 -6 41 -7q96 0 127 91l6 18l74 -176q-88 -53 -88 -158q0 -76 54.5 -130t131.5 -54q76 0 130.5 54t54.5 130q0 78 -54.5 132.5t-130.5 54.5q-16 0 -39 -7l-102 246l170 490l324 258q25 20 59 20q41 0 69.5 -28.5t28.5 -69.5q0 -49 -39 -80q-25 -18 -4 -45q20 -23 45 -2 q61 49 62 127q0 68 -47 115t-115 47q-55 0 -96 -33l-1114 -887q-41 -33 -54 -88q-10 -43 7 -90q-86 -53 -86 -160zM469 49q0 35 23.5 58.5t56.5 23.5q35 0 58.5 -23.5t23.5 -58.5q0 -33 -23.5 -56.5t-58.5 -23.5q-33 0 -56.5 23.5t-23.5 56.5zM852 1024q0 -61 44.5 -105.5 t107.5 -44.5q61 0 105 44.5t44 105.5q0 63 -44 107.5t-105 44.5q-63 0 -107.5 -44.5t-44.5 -107.5zM1214 49q0 35 23.5 58.5t58.5 23.5q33 0 56.5 -23.5t23.5 -58.5q0 -33 -23.5 -56.5t-56.5 -23.5q-35 0 -58.5 23.5t-23.5 56.5z" />
<glyph unicode="&#xe0;" d="M190 401q-10 -27 17 -36q35 -16 106 -48l-114 -88q-23 -33 12 -55q23 -16 47 0l197 82q506 -213 1357 -481q18 -2 23 16q2 21 -16 23q-823 260 -1590 602q-27 12 -39 -15zM498 432q0 -35 23.5 -60.5t58.5 -27.5q20 0 41 8l301 137q33 14 43 58v151l209 -188l-39 -317v-7 q-2 -35 21.5 -61.5t57.5 -26.5q80 -4 89 74l45 363v4q2 41 -27 65l-193 172l291 144l271 -250q20 -18 47 -19q66 0 65 66q0 29 -22 49l-375 344h4l4 -2q57 0 97 41t40 96q0 57 -40 97t-97 40q-55 0 -96 -39.5t-41 -97.5q0 -41 29 -78l-256 90l-138 199q-16 23 -45 27 t-49 -13.5t-24 -44.5q-2 -25 10 -41l139 -202q8 -14 25 -21l161 -63l-266 -135q-59 -31 -71 -103l2 -244l-246 -110q-47 -20 -49 -74z" />
<glyph unicode="&#xe1;" d="M225 -51q37 0 102.5 22.5t100.5 22.5q37 0 102.5 -22.5t102.5 -22.5q35 0 100.5 22.5t102.5 22.5t102.5 -22.5t99.5 -22.5q37 0 102.5 22.5t102.5 22.5q35 0 100.5 -22.5t102.5 -22.5q35 0 100.5 22.5t102.5 22.5t101.5 -22.5t100.5 -22.5v149q-37 0 -101 22.5t-101 22.5 t-101.5 -22.5t-101.5 -22.5t-102.5 22.5t-100.5 22.5q-37 0 -102.5 -22.5t-102.5 -22.5t-101.5 22.5t-100.5 22.5q-37 0 -101.5 -22.5t-101.5 -22.5t-102.5 22.5t-102.5 22.5q-35 0 -100.5 -22.5t-102.5 -22.5v-149zM489 264q10 -2 68 -22q37 -15 76 -15q37 0 101.5 22.5 t101.5 22.5t102.5 -22.5t99.5 -22.5q37 0 102.5 22.5t102.5 22.5q41 0 101.5 -22.5t101.5 -22.5q37 0 74 13l-322 581l375 70q94 16 94 108q0 45 -31.5 78t-79.5 33h-12l-579 -106q-27 -4 -50.5 -33t-23.5 -66q0 -23 14 -55l152 -272zM1423 567q0 -82 54.5 -138t138.5 -56 q80 0 137 57t57 137t-57 137.5t-137 57.5t-136.5 -57.5t-56.5 -137.5z" />
<glyph unicode="&#xe2;" d="M299 1124q0 -25 12 -43l176 -264q23 -37 66 -37q14 0 29 6l198 78v-276h344v319l310 494q10 20 10 43q0 31 -22.5 53.5t-53.5 22.5q-41 0 -63 -35l-263 -418l-157 -2q-16 0 -31 -4l-272 -109l-140 213q-25 37 -65 37q-33 0 -55.5 -23.5t-22.5 -54.5zM504 -125 q0 -43 31.5 -77t74.5 -34q53 0 74 50l221 505q27 -8 62 -8t57 11l246 116l55 -219q16 -68 88 -67q37 0 63.5 25.5t26.5 64.5q0 10 -2 20l-86 344q-16 70 -88 70q-14 0 -29 -6l-174 -82v-58h-344l-270 -618q-6 -16 -6 -37zM793 1231q0 -57 40 -97t97 -40q55 0 96 40t41 97 t-41 97t-96 40q-57 0 -97 -40t-40 -97zM1067 285v-590h57v616zM1182 676q170 84 303 301q100 160 168 369q53 160 53 210h-53q-25 -168 -133 -403q-150 -318 -338 -418v-59z" />
<glyph unicode="&#xe3;" d="M197 1010q0 -2 2 -27q10 -72 74.5 -124t136.5 -52q16 0 32 4l13 2q35 10 67 10q31 0 49 -12l166 -117q-10 -16 -10 -30q0 -31 24.5 -51.5t55.5 -14.5l233 45q18 6 25.5 11t21.5 26l60 123l43 -203q-8 -2 -31 -22q-53 -47 -160 -181l-2 -4q-29 -25 -28 -61v-416 q0 -35 23.5 -58.5t56.5 -23.5q35 0 58 23.5t23 58.5v348q80 84 197 207q2 -12 41 -235q4 -23 27 -50q-2 0 254 -301q23 -27 55 -28q35 -2 61.5 21.5t26.5 58.5q0 31 -20 53l-216 254l-65 393l-10 43l-49 221l65 -37q0 -2 115 -217q12 -25 39 -33q63 -20 84 43q8 27 -4 52 l-123 235q-4 8 -10.5 13.5t-30.5 21.5l-238 135q-45 27 -98 14q-20 -4 -38.5 -14t-33.5 -24q-33 -29 -55 -74l-123 -248l-193 -37q-4 0 -6 -2l-174 125q-37 25 -45 114t-88 146q-59 41 -125 41q-84 0 -127 -61q-27 -37 -26 -84zM250 991v21q-4 39 27.5 65.5t72.5 26.5 q49 0 94 -33q68 -49 68 -119q0 -78 -78 -90q-57 -10 -117.5 31t-66.5 98zM293 594q0 -59 59 -59q61 0 62 59q-1 61 -62 61q-59 0 -59 -61zM1071 1300q0 -53 39 -92t94 -39q53 0 92 39t39 92q0 55 -39 94.5t-92 39.5q-55 0 -94 -39t-39 -95z" />
<glyph unicode="&#xe4;" d="M596 629q-4 -338 80 -566q63 -176 172 -270q80 -68 141 -65v491q-49 0 -69 57q-17 44 -29 173q-18 184 0 354q18 174 96 174v506q-117 -12 -223 -166q-162 -231 -168 -688zM1075 219v-493h139q33 0 48 26q4 14 8 29v385q-1 53 -56 53h-139zM1075 977h139q55 0 56 55v395 q-1 56 -56 56h-139v-506z" />
<glyph unicode="&#xe5;" d="M225 549l31 -164q10 -59 57.5 -98t106.5 -39h106q39 0 39 35t-39 34h-100q-86 0 -100 80l-31 164q-6 35 -35 35q-43 0 -35 -47zM258 1219l1497 -500v590h-1497v-90zM301 831q0 -35 23.5 -58t56.5 -23q35 0 58.5 23t23.5 56q0 35 -23.5 58.5t-56.5 23.5q-35 0 -58.5 -23.5 t-23.5 -56.5zM317 647l43 -215q12 -61 74 -61h176v-195q0 -47 43 -47q45 0 45 45v252q0 61 -63 61l-137 2l-37 185q-12 59 -72 59q-33 0 -56.5 -24.5t-15.5 -61.5zM766 373l29 -164q10 -59 57 -98t109 -39h104q41 0 41 34q0 35 -41 35h-98q-88 2 -103 80l-30 164 q-6 33 -35 33q-43 0 -33 -45zM840 655q0 -35 23.5 -58.5t58.5 -23.5q33 0 56 24t26 56q0 35 -25 58.5t-57 23.5q-35 0 -58.5 -23.5t-23.5 -56.5zM856 471l43 -215q12 -61 74 -61h176v-195q0 -47 45 -47q43 0 43 45v252q0 61 -61 61h-140l-37 187q-12 59 -69 59 q-35 0 -58.5 -24.5t-15.5 -61.5zM1305 197l28 -164q12 -61 58.5 -99t107.5 -38h105q41 0 41 34q0 35 -39 35h-101q-88 0 -102 80l-29 164q-6 33 -37 33q-41 0 -32 -45zM1378 479q0 -35 23.5 -58.5t58.5 -25.5q33 0 57.5 24.5t24.5 57.5q0 35 -23.5 58.5t-58.5 23.5 q-33 0 -57.5 -23.5t-24.5 -56.5zM1395 295l43 -215q12 -61 73 -62h179v-194q0 -47 43 -47t43 45v252q0 61 -62 61h-137l-39 187q-10 59 -70 59q-33 0 -56 -24.5t-17 -61.5z" />
<glyph unicode="&#xe7;" d="M528 838q-8 -37 31 -47l113 -27q39 -10 47 29l96 397q10 37 -29 47l-114 27q-37 10 -47 -29zM575 -160q0 -41 29 -68.5t68 -27.5q76 0 92 68l166 686l157 -682q16 -72 95 -72q39 0 67.5 27.5t28.5 68.5q0 12 -2 21l-217 905l18 80l15 -64q4 -12 10 -20q16 -23 39 -25 l223 -57h14q66 0 66 65q0 51 -51 64l-193 49l-53 215q-33 121 -139 117q-33 0 -60 -12q-63 -29 -80 -103l-290 -1216q-2 -6 -3 -19zM909 1350q0 -57 41.5 -97.5t96.5 -40.5q57 0 97 40t40 98q0 55 -40 95t-97 40q-55 0 -96.5 -40t-41.5 -95zM1341 -223v-2q0 -31 33 -31 q25 0 31 27l229 1247v2q1 31 -30 31q-27 0 -31 -27z" />
<glyph unicode="&#xe8;" d="M152 694l1708 647v58l-1708 -647v-58zM526 -53q0 -59 60 -60h891q59 0 59 60v622q0 62 -59 62h-414v336l-57 -25v-311h-420q-59 0 -60 -62v-622zM584 291v196q0 31 32 31h197q31 0 31 -31v-196q0 -33 -31 -33h-197q-33 0 -32 33zM807 1204q0 -37 27.5 -64.5t66.5 -27.5 t65.5 27.5t26.5 64.5q0 39 -26.5 66.5t-65.5 27.5t-66.5 -27.5t-27.5 -66.5zM903 293v196q0 33 33 33h194q33 0 33 -33v-196q0 -31 -33 -31h-194q-33 0 -33 31zM1030 1288q0 -39 27.5 -66.5t64.5 -27.5q39 0 67 27.5t28 66.5t-28 65.5t-67 26.5q-37 0 -64.5 -26.5 t-27.5 -65.5zM1219 293v196q0 33 32 33h197q31 0 31 -33v-196q0 -31 -31 -31h-197q-33 0 -32 31z" />
<glyph unicode="&#xe9;" d="M203 446q0 -86 61.5 -147t147.5 -61h329q6 88 69.5 149.5t154.5 61.5q88 0 152.5 -61.5t68.5 -147.5h745q0 57 -57 57h-148v512q0 119 -82.5 201t-199.5 82h-959q-119 0 -200.5 -82t-81.5 -201v-363zM420 758v98q0 57 57 57h438q59 0 60 -57v-98q0 -57 -60 -58h-438 q-57 0 -57 58zM803 223q0 -66 47 -113t115 -47q66 0 112.5 47.5t46.5 112.5q0 68 -46.5 115t-112.5 47q-68 0 -115 -47t-47 -115zM895 223q0 31 20.5 50.5t49.5 19.5t49 -19.5t20 -50.5q0 -29 -20 -49t-49 -20t-49.5 20.5t-20.5 48.5zM1235 760v96q0 57 57 57h203 q57 0 57 -57v-96q0 -59 -57 -60h-203q-57 0 -57 60z" />
<glyph unicode="&#xea;" d="M141 -35q0 -70 49 -119t121 -49q70 0 119 49.5t49 118.5q0 70 -49 120t-119 50q-72 0 -121 -50t-49 -120zM193 752l45 -37l518 616l-45 37zM238 -35q0 31 21 52.5t52 21.5q29 0 50.5 -21.5t21.5 -52.5q0 -29 -21.5 -50t-50.5 -21q-31 0 -52 21.5t-21 49.5zM238 190l75 -2 q92 0 159 -65.5t65 -157.5l-2 -151h264l237 671v228h-798v-523zM563 868q-14 -41 27 -53l151 -53q41 -14 56 24l92 271l-31 -15l-14 31l-33 -16l-14 33l-31 -17l-16 33l-31 -16l-14 30l-31 -14l-17 33zM750 1106h2h-2zM868 823q1 -53 62 -53h235q31 0 49 31l119 188v-1112 q0 -33 22.5 -55.5t55.5 -22.5q31 0 53.5 22.5t22.5 55.5v645h53l-2 -645q0 -33 22.5 -55.5t55.5 -22.5q31 0 53.5 22.5t22.5 55.5v1112h51v-409q0 -63 55 -64q53 0 53 64v417q0 72 -50 126.5t-128 54.5h-252q-98 0 -147 -80l-137 -221h-207q-61 0 -62 -54zM1376 1343 q0 -57 40 -97t97 -40q55 0 96.5 40t41.5 97q0 55 -41 96.5t-97 41.5q-57 0 -97 -41t-40 -97z" />
<glyph unicode="&#xeb;" d="M426 23h74v-138q0 -43 31.5 -74.5t74.5 -31.5q45 0 76 31.5t31 74.5v138h710v-138q0 -43 32 -74.5t75 -31.5q45 0 76.5 31.5t31.5 74.5l-2 138h74l2 417l-166 101l-16 247q-4 51 -42 86t-89 35h-662q-51 0 -89 -34.5t-40 -86.5l-16 -247l-166 -101v-417zM426 508l109 67 l14 222q6 72 60.5 121t127.5 49h662q74 0 129 -49.5t59 -120.5l15 -222l108 -67v760q0 49 -34 82.5t-83 33.5h-1048q-49 0 -84 -33.5t-35 -82.5v-760zM514 297q0 37 26.5 63.5t63.5 26.5t63.5 -26.5t26.5 -63.5t-26.5 -63.5t-63.5 -26.5t-63.5 26.5t-26.5 63.5zM655 543 l15 241q4 61 67 62h662q63 0 67 -62l17 -241h-828zM774 162v227q0 39 41 39h506q41 0 41 -39v-227h-588zM1444 297q0 37 26.5 63.5t63.5 26.5t62.5 -26.5t25.5 -63.5t-25.5 -63.5t-62.5 -26.5t-63.5 26.5t-26.5 63.5z" />
<glyph unicode="&#xec;" d="M213 33q37 0 101.5 22.5t101.5 22.5t102.5 -22.5t99.5 -22.5q39 0 103.5 22.5t101.5 22.5t101.5 -22.5t101.5 -22.5t101.5 22.5t101.5 22.5t101.5 -22.5t101.5 -22.5q39 0 102 22.5t100 22.5t102.5 -22.5t102.5 -22.5v151q-37 0 -102.5 21.5t-102.5 21.5t-101.5 -21.5 t-100.5 -21.5q-37 0 -101.5 21.5t-101.5 21.5t-101.5 -21.5t-101.5 -21.5t-102.5 21.5t-100.5 21.5q-37 0 -102.5 -21.5t-102.5 -21.5q-35 0 -100 21.5t-102 21.5t-101.5 -21.5t-101.5 -21.5v-151zM213 481h137l113 -131q16 -2 74 -24q43 -14 81 -15q37 0 102.5 22.5 t102.5 22.5q35 0 100.5 -22.5t102.5 -22.5t101.5 22.5t101.5 22.5t101.5 -22.5t101.5 -22.5q41 0 88 17q57 23 82 24l110 131h127v125h-199q29 14 29 45v52h51v163q0 59 -57 74l-59 139q-14 35 -52 35h-299q-39 0 -53 -35l-57 -139q-57 -14 -58 -74v-163h52v-52 q0 -31 28 -45h-276q31 14 29 45v52h51v163q0 59 -58 74l-57 139q-14 35 -53 35h-299q-37 0 -51 -35l-60 -139q-57 -14 -57 -74v-163h51v-52q0 -31 29 -45h-201v-127zM393 840q0 49 51 49t52 -49q0 -51 -52 -52q-51 1 -51 52zM442 946l50 119q4 10 14 10h291q10 0 14 -10 l51 -119h-420zM457 608q29 14 28 45v52h334v-52q0 -31 29 -45h-391zM809 840q0 49 49 49q51 0 51 -49q0 -51 -51 -52q-49 1 -49 52zM1145 840q0 49 49 49q51 0 51 -49q0 -51 -51 -52q-49 1 -49 52zM1192 946l51 119q4 10 14 10h291q10 0 15 -10l49 -119h-420zM1206 608 q29 14 29 45v52h334v-52q0 -31 28 -45h-391zM1559 840q0 49 51 49t51 -49q0 -51 -51 -52q-51 1 -51 52z" />
<glyph unicode="&#xed;" d="M342 33l152 2v684q0 219 155.5 374.5t374.5 155.5t374.5 -155.5t155.5 -374.5v-684h152v684q0 281 -199.5 480.5t-482.5 199.5t-482.5 -200t-199.5 -480v-686zM807 336h403v274q0 84 -58 143.5t-142 59.5t-143.5 -59.5t-59.5 -143.5v-274zM889 -186h241l-20 116h-203z M928 47h162l-15 86h-131zM958 221h103l-10 58h-82z" />
<glyph unicode="&#xee;" d="M279 1135l536 45v63h57v57h-593v-165zM547 -195h391v146h-242v878l-47 267q-4 23 -28 22q-25 0 -29 -24l-45 -265v-1024zM762 1040q0 -27 18 -45l191 -190q20 -23 49 -23q33 0 53 25l111 111l274 -277v-731q0 -47 33 -79t80 -32q45 0 77.5 32t32.5 79v887q0 27 -18 45 l-297 295q-29 31 -70 30q-43 0 -71 -30l-199 -199l-143 145q-25 25 -56 25q-66 0 -65 -68zM983 1266q0 -55 41 -95.5t96 -40.5q57 0 97 40t40 96q0 57 -39.5 97t-97.5 40q-55 0 -96 -40t-41 -97z" />
<glyph unicode="&#xef;" d="M211 -76v-149q37 0 101.5 21.5t101.5 21.5t102.5 -21.5t99.5 -21.5q37 0 102.5 21.5t100.5 21.5q37 0 102.5 -21.5t102.5 -21.5t101.5 21.5t101.5 21.5t101.5 -21.5t101.5 -21.5q39 0 102 21.5t100 21.5t102.5 -21.5t102.5 -21.5v149q-37 0 -102.5 22.5t-102.5 22.5 q-35 0 -100.5 -22.5t-101.5 -22.5q-37 0 -101.5 22.5t-101.5 22.5t-101.5 -22.5t-101.5 -22.5t-102.5 22.5t-102.5 22.5q-35 0 -100.5 -22.5t-102.5 -22.5q-35 0 -100 22.5t-102 22.5t-101.5 -22.5t-101.5 -22.5zM584 399l45 -202h211v-131q31 -2 80 -20.5t73 -22.5v411 l-172 111q-14 10 -30 16v379h51v-287h358v287h51v-414q0 -61 56 -61q53 0 53 61v445q0 72 -50 126t-128 54h-324q-74 0 -125 -51t-51 -127v-410q-98 -39 -98 -145v-19zM641 418q0 55 45 82q14 -35 49 -35q37 0 51 35q45 -27 45 -82h-190zM856 1346q0 -70 48 -118t118 -48 q68 0 117 48t49 118q0 68 -49 116.5t-117 48.5q-70 0 -118 -49t-48 -116zM1051 25q27 2 74.5 20.5t74.5 20.5v466l-149 -98v-409z" />
<glyph unicode="&#xf1;" d="M180 14h168v92h-168v-92zM397 14h168v92h-168v-92zM473 -68v-194h139v194h-139zM612 14h168v92h-168v-92zM645 279q-2 -29 17.5 -51.5t48.5 -24.5q45 -4 67 35l148 247q6 10 14 29l35 164l153 -168l48 -252q10 -53 65 -57q31 -2 53.5 17t24.5 50v15l-51 268q-2 14 -8 22 l-189 224l47 213l41 -80q4 -8 10 -15l160 -110q8 -2 23 -6q47 -4 51 43q2 29 -19 43l-145 100l-109 213q-31 49 -83 53q-43 2 -74 -22l-215 -174q-10 -8 -15 -23l-47 -209v-6q-4 -49 43 -53q43 -2 52 41l40 180l74 59l-114 -505l-136 -230q-10 -12 -10 -30zM829 14h168v92 h-168v-92zM965 1386q-4 -43 24.5 -76.5t73.5 -37.5q43 -2 77 25.5t36 72.5q4 43 -25 77t-72 38q-45 2 -77.5 -26.5t-36.5 -72.5zM1044 14h170v92h-170v-92zM1262 14h168v92h-168v-92zM1436 -68v-194h137v194h-137zM1479 14h168v92h-168v-92zM1700 14h168v92h-168v-92z M1804 1638z" />
<glyph unicode="&#xf2;" d="M217 -55v-152q35 0 100.5 22.5t102.5 22.5t101.5 -22.5t101.5 -22.5t101 22.5t101 22.5t101.5 -22.5t101.5 -22.5t102.5 22.5t100.5 22.5q37 0 102.5 -22.5t102.5 -22.5t101.5 22.5t100.5 22.5q37 0 102.5 -22.5t100.5 -22.5v152q-35 0 -100.5 21.5t-102.5 21.5 t-101 -21.5t-101 -21.5t-102.5 21.5t-102.5 21.5q-35 0 -100.5 -21.5t-102.5 -21.5q-35 0 -100.5 21.5t-102.5 21.5t-101.5 -21.5t-100.5 -21.5q-37 0 -101.5 21.5t-101.5 21.5t-102.5 -21.5t-100.5 -21.5zM352 840q31 -49 168 -49q49 0 144.5 9t144.5 9q238 0 330 -322 q47 -170 47 -383q23 4 45 5q37 0 102.5 -23t102.5 -23q39 0 91 20.5t77 22.5q-12 375 -453 781q-31 29 -31 76q0 16 4 32l101 332q12 39 8 82t-23 59q-37 29 -65 -4l-271 -307q-29 -33 -28 -72q0 -29 16 -59q-49 18 -108 18q-90 0 -158 -34l-223 -113q-43 -23 -21 -57z" />
<glyph unicode="&#xf3;" d="M217 -55v-152q35 0 100.5 22.5t102.5 22.5t101.5 -22.5t101.5 -22.5t101 22.5t101 22.5t102.5 -22.5t100.5 -22.5q37 0 102.5 22.5t102.5 22.5t101.5 -22.5t101.5 -22.5t101.5 22.5t100.5 22.5q37 0 102.5 -22.5t100.5 -22.5v152q-37 0 -101.5 21.5t-101.5 21.5 t-101 -21.5t-101 -21.5t-102.5 21.5t-100.5 21.5q-20 0 -37 -2l543 98q123 23 123 113q0 29 -27 30q-18 0 -23 -8q-20 -55 -86 -65l-948 -170q-18 -4 -73 -23q-41 -16 -82 -16q-37 0 -101.5 21.5t-101.5 21.5t-101.5 -21.5t-101.5 -21.5zM238 1313q0 -55 40 -96t97 -41 t97 40.5t40 96.5q0 57 -40 97t-97 40t-97 -40t-40 -97zM274 1065l88 -399q14 -66 64 -86l2 -2l258 -152l88 -356q14 -59 82 -60l-2 -2q37 0 62.5 25.5t25.5 62.5l-2 15l-104 448q-10 45 -64 68l-154 92l-69 301h432q63 0 63 63q0 66 -63 66h-623q-45 0 -68.5 -26.5 t-15.5 -57.5zM1081 1020h762v47h-762v-47z" />
<glyph unicode="&#xf4;" d="M434 371q0 -213 150.5 -364.5t363.5 -151.5q156 0 285 86q123 84 184 221l-71 125q-29 -139 -141 -231.5t-257 -92.5q-168 0 -287.5 120t-119.5 288q0 186 143 309l-6 127q-113 -70 -178.5 -185.5t-65.5 -250.5zM723 1278q0 -57 41 -97t96 -40q57 0 97 40t40 97t-39.5 97 t-97.5 40q-55 0 -96 -40t-41 -97zM737 975l25 -416q4 -53 44 -89t95 -36h445l182 -313q23 -39 69 -39q33 0 56.5 22.5t23.5 55.5q0 23 -12 43l-233 403q-23 39 -66 39h-344l-2 103h248q61 0 61 63q0 61 -61 61h-256l-8 119q-4 53 -45 90t-97 35q-53 -4 -90 -45t-35 -96z" />
<glyph unicode="&#xf5;" d="M217 -76v-151q35 0 100.5 22.5t102.5 22.5t101.5 -22.5t101.5 -22.5t101 22.5t101 22.5t102.5 -22.5t100.5 -22.5q37 0 102.5 22.5t102.5 22.5q35 0 100.5 -22.5t102.5 -22.5t101.5 22.5t100.5 22.5q37 0 101.5 -22.5t101.5 -22.5v151q-37 0 -101.5 21.5t-101.5 21.5 t-101 -21.5t-101 -21.5t-102.5 21.5t-100.5 21.5q-37 0 -102.5 -21.5t-102.5 -21.5q-35 0 -100.5 21.5t-102.5 21.5t-101.5 -21.5t-100.5 -21.5q-37 0 -101.5 21.5t-101.5 21.5t-102.5 -21.5t-100.5 -21.5zM293 739q0 -41 28.5 -69.5t69.5 -28.5t69.5 28.5t28.5 69.5 t-28.5 70t-69.5 29t-69.5 -29t-28.5 -70zM340 518q0 -12 4 -24l105 -238q27 -61 94 -61h280l162 -156q18 -16 45 -16q63 0 64 63q0 29 -21 49l-186 176q-16 16 -43 17h-191l-86 192h103q20 0 32 10l170 76q23 14 23 41q0 49 -49 49q-10 0 -17 -4l-157 -71h-228 q-43 0 -73.5 -30t-30.5 -73zM643 1497l543 -1386l596 376q-25 397 -400 695q-332 262 -739 315zM1018 748q0 20 16 24q82 31 232 31q350 0 477 -244q8 -14 8 -20q0 -31 -29 -31q-16 0 -20 8q-135 229 -440 229q-94 0 -203 -24q-8 -2 -12 -2q-29 0 -29 29z" />
<glyph unicode="&#xf6;" d="M342 16q0 -43 43 -43h383q43 0 43 43v498h45q43 0 43 45v514h-391l-166 -702v-45v-310zM641 1133h260v186h-260v-186zM956 596h136v477h-136v-477zM1151 559q0 -43 43 -43h45v-500q0 -43 43 -43h383q43 0 43 43v357l-166 700h-391v-514zM1151 1133h260v186h-260v-186z " />
<glyph unicode="&#xf9;" d="M293 375q16 -16 35 0l75 78v-82l-88 -90q-10 -10 0 -21q10 -10 21 0l67 70l3 -209q0 -12 12 -12t12 12v106l53 -55q8 -6 15 0q6 6 0 14l-56 56v250l43 40q16 -27 45 -26q51 0 52 61v62l51 51v-821q0 -33 22.5 -55.5t55.5 -22.5q31 0 54 22.5t23 55.5v651h52v-651 q0 -33 22.5 -55.5t55.5 -22.5t55 22.5t22 55.5v1147l172 -172q14 -14 37 -15h115l-211 -211l49 -47l107 107h448q20 0 21 22q0 23 -21 23h-164l82 82h150q18 0 18 16t-18 16h-115l176 177q10 10 0 20q-10 12 -22 0l-88 -88v90q0 12 -13 12q-10 0 -10 -12v-92l-209 -209h-178 l94 94h27q55 0 55 53q0 2 -8 21l29 29q10 12 10 28v99l151 120h107q10 0 10 11q0 12 -10 12h-103l99 78q10 12 0 20q-4 4 -10 4t-11 -4l-151 -121v172q0 12 -15 13q-12 0 -12 -13v-192l-74 -62v111q0 18 -18 19q-18 0 -18 -19v-225l-48 -47h-198l-195 194q-8 10 -16 15 q-47 39 -109 39h-256q-78 0 -128 -55.5t-50 -127.5v-403l-180 -178q-16 -18 0 -35zM582 696v285h51v-233zM676 1339q0 -57 40 -97t97 -40t98 40t41 97t-41 98.5t-98 41.5t-97 -41t-40 -99z" />
<glyph unicode="&#xfa;" d="M367 240l71 -31l172 96v-123l52 -35l61 39v185l113 65v-137l118 76v-129l-163 -92v-68l57 -33l108 62v-197l64 -39l63 39v197l109 -62l55 29v72l-162 92v129l115 -70v129l119 -69v-185l57 -33l60 33v121l161 -92l70 33v77l-166 97l105 59v66l-54 39l-166 -93l-116 62 l114 65l-110 68l112 74l166 -99l56 31v70l-107 59l172 98v74l-61 37l-176 -94v129l-62 26l-55 -26v-203l-119 -63v139l-115 -70v129l168 94v62l-57 39l-113 -64v195l-63 41l-64 -41v-195l-108 62l-57 -33v-68l163 -92v-129l-120 66v-133l-115 65v189l-64 34l-51 -34v-125 l-172 98l-65 -35v-78l174 -94l-111 -61v-70l62 -31l159 95l113 -64l-111 -70l117 -67l-113 -64l-159 95l-64 -35v-72l111 -57l-178 -97v-79zM911 614l56 93h110l53 -93l-51 -86h-108z" />
<glyph unicode="&#xfb;" d="M590 612q0 -59 57 -59q41 0 55 45l105 356h59l-176 -630h170v-494q0 -63 64 -63q63 0 63 63v496h64v-496q0 -63 63 -63t64 63v494h170l-179 630h62l106 -356q14 -45 56 -45q55 0 55 59q0 10 -4 23l-117 389q-12 39 -59 76q-55 45 -121 45h-270q-63 0 -113 -45 q-39 -35 -51 -76l-119 -389q-4 -12 -4 -23zM883 1313q0 -57 40 -97t97 -40q55 0 96 39.5t41 97.5q0 55 -41 96t-96 41q-57 0 -97 -41t-40 -96z" />
<glyph unicode="&#x2000;" horiz-adv-x="778" />
<glyph unicode="&#x2001;" horiz-adv-x="1556" />
<glyph unicode="&#x2002;" horiz-adv-x="778" />
<glyph unicode="&#x2003;" horiz-adv-x="1556" />
<glyph unicode="&#x2004;" horiz-adv-x="518" />
<glyph unicode="&#x2005;" horiz-adv-x="389" />
<glyph unicode="&#x2006;" horiz-adv-x="259" />
<glyph unicode="&#x2007;" horiz-adv-x="259" />
<glyph unicode="&#x2008;" horiz-adv-x="194" />
<glyph unicode="&#x2009;" horiz-adv-x="311" />
<glyph unicode="&#x200a;" horiz-adv-x="86" />
<glyph unicode="&#x202f;" horiz-adv-x="311" />
<glyph unicode="&#x205f;" horiz-adv-x="389" />
<glyph unicode="&#x25fc;" horiz-adv-x="1495" d="M0 0v1495h1495v-1495h-1495z" />
</font>
</defs>
</svg>
